<?xml version="1.0" encoding="UTF-8" standalone="no"?>
<svg
   xmlns:dc="http://purl.org/dc/elements/1.1/"
   xmlns:cc="http://creativecommons.org/ns#"
   xmlns:rdf="http://www.w3.org/1999/02/22-rdf-syntax-ns#"
   xmlns:svg="http://www.w3.org/2000/svg"
   xmlns="http://www.w3.org/2000/svg"
   xmlns:sodipodi="http://sodipodi.sourceforge.net/DTD/sodipodi-0.dtd"
   xmlns:inkscape="http://www.inkscape.org/namespaces/inkscape"
   inkscape:version="1.0.2-2 (e86c870879, 2021-01-15)"
   id="svg8"
   version="1.1"
   viewBox="0 0 176.8277 30.072493"
   height="30.072493mm"
   width="176.8277mm"
   sodipodi:docname="DanceMuse.svg">
  <defs
     id="defs2">
    <filter
       inkscape:collect="always"
       style="color-interpolation-filters:sRGB"
       id="filter1347"
       x="-0.049225543"
       width="1.0984511"
       y="-0.39250895"
       height="1.7850178">
      <feGaussianBlur
         inkscape:collect="always"
         stdDeviation="3.950805"
         id="feGaussianBlur1349" />
    </filter>
    <filter
       inkscape:collect="always"
       style="color-interpolation-filters:sRGB"
       id="filter855"
       x="-0.0017059979"
       width="1.003412"
       y="-0.012422449"
       height="1.0248449">
      <feGaussianBlur
         inkscape:collect="always"
         stdDeviation="0.12092524"
         id="feGaussianBlur857" />
    </filter>
    <filter
       inkscape:collect="always"
       style="color-interpolation-filters:sRGB"
       id="filter1012"
       x="-0.0028831363"
       width="1.0057663"
       y="-0.020993939"
       height="1.0419879">
      <feGaussianBlur
         inkscape:collect="always"
         stdDeviation="0.20436366"
         id="feGaussianBlur1014" />
    </filter>
    <filter
       inkscape:collect="always"
       style="color-interpolation-filters:sRGB"
       id="filter1049"
       x="-0.033913344"
       width="1.0678267"
       y="-0.028628098"
       height="1.0572562">
      <feGaussianBlur
         inkscape:collect="always"
         stdDeviation="0.20436366"
         id="feGaussianBlur1051" />
    </filter>
    <filter
       inkscape:collect="always"
       style="color-interpolation-filters:sRGB"
       id="filter1053"
       x="-0.045184623"
       width="1.0903693"
       y="-0.028132252"
       height="1.0562645">
      <feGaussianBlur
         inkscape:collect="always"
         stdDeviation="0.20436366"
         id="feGaussianBlur1055" />
    </filter>
    <filter
       inkscape:collect="always"
       style="color-interpolation-filters:sRGB"
       id="filter1057"
       x="-0.033987749"
       width="1.0679755"
       y="-0.028977549"
       height="1.0579551">
      <feGaussianBlur
         inkscape:collect="always"
         stdDeviation="0.20436366"
         id="feGaussianBlur1059" />
    </filter>
    <filter
       inkscape:collect="always"
       style="color-interpolation-filters:sRGB"
       id="filter1061"
       x="-0.021224935"
       width="1.04245"
       y="-0.021520982"
       height="1.0430419">
      <feGaussianBlur
         inkscape:collect="always"
         stdDeviation="0.20436366"
         id="feGaussianBlur1063" />
    </filter>
    <filter
       inkscape:collect="always"
       style="color-interpolation-filters:sRGB"
       id="filter1065"
       x="-0.033913288"
       width="1.0678266"
       y="-0.028628098"
       height="1.0572562">
      <feGaussianBlur
         inkscape:collect="always"
         stdDeviation="0.20436366"
         id="feGaussianBlur1067" />
    </filter>
    <filter
       inkscape:collect="always"
       style="color-interpolation-filters:sRGB"
       id="filter1069"
       x="-0.037226886"
       width="1.0744538"
       y="-0.02857508"
       height="1.0571502">
      <feGaussianBlur
         inkscape:collect="always"
         stdDeviation="0.20436366"
         id="feGaussianBlur1071" />
    </filter>
    <filter
       inkscape:collect="always"
       style="color-interpolation-filters:sRGB"
       id="filter1073"
       x="-0.032936033"
       width="1.0658721"
       y="-0.028055534"
       height="1.0561111">
      <feGaussianBlur
         inkscape:collect="always"
         stdDeviation="0.20436366"
         id="feGaussianBlur1075" />
    </filter>
    <filter
       inkscape:collect="always"
       style="color-interpolation-filters:sRGB"
       id="filter1077"
       x="-0.038673043"
       width="1.0773461"
       y="-0.029846305"
       height="1.0596926">
      <feGaussianBlur
         inkscape:collect="always"
         stdDeviation="0.20436366"
         id="feGaussianBlur1079" />
    </filter>
    <filter
       inkscape:collect="always"
       style="color-interpolation-filters:sRGB"
       id="filter1081"
       x="-0.026444806"
       width="1.0528896"
       y="-0.021520982"
       height="1.0430419">
      <feGaussianBlur
         inkscape:collect="always"
         stdDeviation="0.20436366"
         id="feGaussianBlur1083" />
    </filter>
    <filter
       inkscape:collect="always"
       style="color-interpolation-filters:sRGB"
       id="filter1283"
       x="-0.019721335"
       width="1.0394427"
       y="-0.14360349"
       height="1.287207">
      <feGaussianBlur
         inkscape:collect="always"
         stdDeviation="1.3978958"
         id="feGaussianBlur1285" />
    </filter>
  </defs>
  <sodipodi:namedview
     scale-x="10"
     inkscape:pagecheckerboard="false"
     units="mm"
     showgrid="true"
     inkscape:document-rotation="0"
     inkscape:current-layer="layer5"
     inkscape:document-units="cm"
     inkscape:cy="65.541043"
     inkscape:cx="284.58361"
     inkscape:zoom="1.4"
     inkscape:pageshadow="2"
     inkscape:pageopacity="0.0"
     borderopacity="1.0"
     bordercolor="#666666"
     pagecolor="#ffffff"
     id="base"
     inkscape:window-width="1920"
     inkscape:window-height="1001"
     inkscape:window-x="-9"
     inkscape:window-y="-9"
     inkscape:window-maximized="1"
     fit-margin-top="0"
     fit-margin-left="0"
     fit-margin-right="0"
     fit-margin-bottom="0">
    <inkscape:grid
       dotted="true"
       id="grid10"
       type="xygrid"
       originx="-3.7446656"
       originy="-60.498879" />
  </sodipodi:namedview>
  <metadata
     id="metadata5">
    <rdf:RDF>
      <cc:Work
         rdf:about="">
        <dc:format>image/svg+xml</dc:format>
        <dc:type
           rdf:resource="http://purl.org/dc/dcmitype/StillImage" />
        <dc:title></dc:title>
      </cc:Work>
    </rdf:RDF>
  </metadata>
  <g
     id="layer1"
     inkscape:groupmode="layer"
     inkscape:label="Layer 1"
     transform="translate(-3.7446654,-60.498876)">
    <g
       id="g1588">
      <g
         aria-label="Dance Muse
"
         id="text833"
         style="font-style:normal;font-weight:normal;font-size:32.5488px;line-height:1.25;font-family:sans-serif;fill:#ffffff;fill-opacity:1;stroke:#ff0000;stroke-width:0.610289;filter:url(#filter1012)">
        <path
           d="m 13.202496,62.795491 h 0.905897 q 7.247171,0 10.250933,5.101627 1.287326,2.383938 1.287326,5.196985 v 1.017147 q 0,7.215385 -6.484311,10.250933 -3.289834,1.223754 -6.325382,1.223754 h -1.493934 q -4.1321591,-0.143036 -4.1321591,-0.635716 -0.095357,0 -0.1112505,-0.27018 V 63.812638 q 0,-0.49268 0.6833956,-0.588038 0.588038,0.174822 0.588038,0.588038 v 20.231686 q 1.954829,0.206608 3.671264,0.27018 8.884142,0 11.474688,-6.007523 0.842325,-2.161437 0.842325,-4.62484 0,-7.29485 -6.468418,-9.074857 -1.923044,-0.476787 -3.830194,-0.476787 h -0.858218 q -1.748221,0 -2.066079,1.589292 v 16.512743 q 0,0.969468 -0.746967,0.969468 Q 9.8014117,83.027178 9.8014117,82.613962 V 65.719789 q 0,-1.525721 1.7641143,-2.55876 0.76286,-0.365538 1.63697,-0.365538 z"
           style="font-style:normal;font-variant:normal;font-weight:normal;font-stretch:normal;font-size:32.5487px;font-family:Clip;-inkscape-font-specification:Clip;fill:#ffffff;stroke:#ff0000;stroke-width:0.610289;filter:url(#filter1081)"
           id="path1030" />
        <path
           d="m 34.864545,69.152659 h 0.683396 q 2.717689,0 4.736089,2.17733 1.096612,1.52572 1.096612,3.099119 v 0.810539 q 0,5.562522 0.127143,8.725213 0,0.87411 -1.319112,1.287326 -0.158929,0.03179 -0.38143,0.03179 h -0.206608 q -1.382684,0 -1.541613,-1.652864 -0.238394,-7.120027 -0.413216,-7.120027 -0.301966,-0.460895 -1.335005,-0.460895 -4.052695,0 -5.912166,2.638225 -0.508574,1.001253 -0.508574,1.954829 v 0.476787 q 0,2.892512 3.655372,3.401085 0.286072,0 0.731074,0.04768 1.048933,0 2.638225,-0.858218 0.556252,0.11125 0.556252,0.508573 -0.04768,0.874111 -2.813047,1.366791 h -0.731074 q -3.21037,0 -4.672518,-2.558759 -0.429109,-1.001254 -0.429109,-1.827686 V 80.56378 q 0,-3.162691 3.750729,-4.895019 1.795899,-0.683396 3.734836,-0.683396 1.923043,0 2.431616,1.446256 0.127144,0.476788 0.429109,7.580923 0.222501,0.206607 0.38143,0.206607 h 0.301966 q 0.635716,-0.07946 0.635716,-0.429108 -0.174822,-0.969468 -0.174822,-9.36093 0,-2.209116 -2.256794,-3.575907 -1.446256,-0.683395 -2.765368,-0.683395 -2.495189,0 -4.767876,1.287326 l -0.174822,0.03179 q -0.508573,-0.127143 -0.508573,-0.588038 0,-0.635717 2.987868,-1.493934 1.191969,-0.254287 2.034294,-0.254287 z"
           style="font-style:normal;font-variant:normal;font-weight:normal;font-stretch:normal;font-size:32.5487px;font-family:Clip;-inkscape-font-specification:Clip;fill:#ffffff;stroke:#ff0000;stroke-width:0.610289;filter:url(#filter1077)"
           id="path1032" />
        <path
           d="m 53.077831,68.421585 h 0.603931 q 4.020908,0 5.530735,4.100373 0.333752,1.239648 0.333752,1.938936 0.03179,7.708066 0.03179,11.029686 0,0.301965 -0.460895,0.413216 h -0.27018 q -0.11125,-0.03179 -0.365537,-0.317859 -0.04768,-1.366791 -0.04768,-1.764114 0,-2.39983 -0.04768,-9.360929 0,-2.209116 -1.748222,-3.909658 -1.335005,-0.969468 -2.908404,-0.969468 h -0.286072 q -0.03179,0 -0.03179,-0.04768 l -0.09536,0.04768 h -0.333751 q -2.463402,0 -3.687157,3.226263 -0.413216,1.589291 -0.413216,2.67001 v 8.025924 q 0,1.811793 -1.382684,2.352152 l -0.460895,0.04768 H 46.6253 q -1.605184,0 -1.843578,-2.161437 -0.09536,-11.744867 -0.09536,-14.669164 0.254287,-0.333752 0.508574,-0.333752 h 0.09536 q 0.556252,0 0.556252,1.207862 v 0.413216 q 0,1.684649 0.07946,13.461302 0,0.92179 0.890003,0.92179 v 0.04768 q 0.92179,0 0.92179,-1.144291 V 75.5734 q 0,-4.100373 2.67001,-6.325381 1.350898,-0.826432 2.670011,-0.826432 z"
           style="font-style:normal;font-variant:normal;font-weight:normal;font-stretch:normal;font-size:32.5487px;font-family:Clip;-inkscape-font-specification:Clip;fill:#ffffff;stroke:#ff0000;stroke-width:0.610289;filter:url(#filter1073)"
           id="path1034" />
        <path
           d="m 71.148082,68.99373 h 0.842325 q 1.652863,0 3.099119,0.667503 0.667503,0.572145 0.667503,1.239647 v 0.222501 q 0,1.064826 -1.287327,1.541613 -0.238394,0.04768 -0.349644,0.04768 -1.446256,-0.349644 -2.622332,-0.349644 h -0.04768 q -3.5918,0 -4.529482,3.099119 -0.174823,0.699288 -0.301966,2.44751 -0.286072,0.270179 -0.49268,0.270179 -0.397323,0 -0.572145,-0.540359 0,-4.386446 3.146798,-5.848594 1.271433,-0.54036 2.701796,-0.54036 h 0.04768 q 1.287326,0 2.797153,0.349645 0.445002,-0.27018 0.445002,-0.572145 0,-0.65161 -1.732328,-0.842325 -0.572145,-0.07946 -1.462149,-0.127144 -3.877872,0 -6.388953,3.273942 -1.287327,1.986615 -1.287327,4.434124 0,5.181092 4.481804,6.929313 1.589291,0.397323 2.749475,0.397323 1.986614,0 4.354659,-0.890003 h 0.03179 q 0.365537,0 0.492681,0.49268 v 0.127143 q 0,0.842325 -4.211624,1.335006 h -1.112504 q -4.08448,0 -6.468418,-3.321621 -1.382684,-2.161437 -1.382684,-4.624839 v -0.842325 q 0,-4.08448 3.591799,-6.786276 2.288581,-1.589292 4.799662,-1.589292 z"
           style="font-style:normal;font-variant:normal;font-weight:normal;font-stretch:normal;font-size:32.5487px;font-family:Clip;-inkscape-font-specification:Clip;fill:#ffffff;stroke:#ff0000;stroke-width:0.610289;filter:url(#filter1069)"
           id="path1036" />
        <path
           d="m 86.405284,68.898372 h 0.699288 q 3.528228,0 5.467164,3.273942 1.001254,1.7959 1.001254,4.291088 v 0.603931 q 0,1.048932 -1.478041,1.319112 h -8.788784 q -1.573399,-0.190715 -1.573399,-1.52572 0.2225,-1.541613 1.52572,-1.541613 h 7.167706 q 0.365537,0 0.476788,0.49268 v 0.127144 q 0,0.365537 -0.524466,0.476787 h -7.072349 q -0.476788,0 -0.476788,0.445002 0.03179,0.429109 0.429109,0.429109 h 8.836463 q 0.38143,0 0.38143,-0.349645 v -0.524466 q 0,-4.450017 -3.353406,-6.023416 -1.064826,-0.397323 -1.970722,-0.397323 H 86.92975 q -0.09536,0 -0.174822,-0.04768 -0.07947,0.04768 -0.174822,0.04768 h -0.127143 q -3.909659,0 -5.76913,4.322874 -0.524466,1.827686 -0.524466,3.242155 0,5.212878 4.720197,7.024671 1.478041,0.397323 2.447509,0.397323 2.225009,0 4.84734,-1.223755 h 0.04768 q 0.524467,0.127143 0.524467,0.524466 v 0.04768 q 0,0.826432 -3.941444,1.621078 -0.476788,0.07946 -1.080719,0.07946 H 86.97743 q -2.924297,0 -5.514843,-2.272687 -2.352152,-2.431617 -2.352152,-5.721451 v -0.794646 q 0,-3.750729 2.526974,-6.373061 2.113758,-1.970722 4.767876,-1.970722 z"
           style="font-style:normal;font-variant:normal;font-weight:normal;font-stretch:normal;font-size:32.5487px;font-family:Clip;-inkscape-font-specification:Clip;fill:#ffffff;stroke:#ff0000;stroke-width:0.610289;filter:url(#filter1065)"
           id="path1038" />
        <path
           d="m 106.76411,62.795491 h 0.2225 q 0.54036,0.111251 0.54036,0.54036 l -1.3509,20.358829 q 0,0.492681 0.63572,0.603931 0.65161,0 0.65161,-1.14429 0.85821,-16.083634 0.96946,-17.227924 0.30197,-0.381431 0.58804,-0.381431 0.74697,0 0.96947,1.446256 l 5.45127,16.814709 q 0.30197,0.317858 0.54036,0.317858 h 0.20661 q 0.68339,0 1.03304,-1.764114 l 5.70556,-18.594715 q 0.6675,-0.969469 1.62107,-0.969469 h 0.42911 q 1.11251,0 1.66876,1.557507 1.28733,19.643648 1.28733,20.740259 0,0.365537 -0.54036,0.49268 h -0.20661 q -0.65161,0 -0.65161,-1.716435 -1.1284,-18.451679 -1.23965,-19.357575 -0.2225,-0.429109 -0.58804,-0.429109 -0.6675,0 -0.85821,1.303219 l -5.81681,18.960253 q -0.79465,1.128397 -1.84358,1.128397 H 115.982 q -1.76411,0 -2.36804,-3.019655 -0.92179,-2.590545 -4.0527,-12.603084 h -0.0477 q -0.71518,14.605592 -0.85822,14.605592 -0.63571,1.128397 -1.66875,1.128397 h -0.49268 q -1.1284,0 -1.66876,-1.668756 V 83.69468 q 1.28733,-20.025078 1.46215,-20.629009 0.27018,-0.27018 0.47679,-0.27018 z"
           style="font-style:normal;font-variant:normal;font-weight:normal;font-stretch:normal;font-size:32.5487px;font-family:Clip;-inkscape-font-specification:Clip;fill:#ffffff;stroke:#ff0000;stroke-width:0.610289;filter:url(#filter1061)"
           id="path1040" />
        <path
           d="m 131.55707,68.977837 h 0.27018 q 0.0954,0.03179 0.34964,0.317858 0.0477,1.319113 0.0477,1.68465 0,2.336259 0.0477,9.074857 0,2.145544 1.70054,3.798407 1.28733,0.937683 2.81305,0.937683 h 0.27018 q 0.0477,0 0.0477,0.04768 l 0.0795,-0.04768 h 0.31786 q 2.38394,0 3.57591,-3.130906 0.39732,-1.541613 0.39732,-2.590545 v -7.771638 q 0,-1.764114 1.33501,-2.272687 l 0.445,-0.04768 h 0.41321 q 1.54162,0 1.78001,2.097865 0.0954,11.363438 0.0954,14.20827 -0.25429,0.301965 -0.49268,0.301965 h -0.0954 q -0.54036,0 -0.54036,-1.160183 V 84.02843 q 0,-1.63697 -0.0795,-13.048086 0,-0.890004 -0.85822,-0.890004 v -0.04768 q -0.89001,0 -0.89001,1.128397 v 7.803423 q 0,3.97323 -2.59054,6.118774 -1.30322,0.810539 -2.59055,0.810539 h -0.57214 q -3.89377,0 -5.37181,-3.97323 -0.30196,-1.191969 -0.30196,-1.875364 -0.0477,-7.453779 -0.0477,-10.680042 0,-0.301965 0.445,-0.397323 z"
           style="font-style:normal;font-variant:normal;font-weight:normal;font-stretch:normal;font-size:32.5487px;font-family:Clip;-inkscape-font-specification:Clip;fill:#ffffff;stroke:#ff0000;stroke-width:0.610289;filter:url(#filter1057)"
           id="path1042" />
        <path
           d="m 154.57001,68.469264 h 0.68339 q 1.66876,0 2.97198,0.76286 0.58803,0.556252 0.63571,1.223754 v 0.04768 q 0,1.14429 -1.31911,1.621078 -0.2225,0.04768 -0.445,0.04768 -1.7959,-0.508574 -2.65412,-0.508574 -1.60518,0 -1.84358,1.493935 -0.0795,0.635716 -0.49268,0.635716 h -0.27018 q -0.36553,-0.206607 -0.36553,-0.508573 v -0.07946 q 0,-1.780006 2.0184,-2.526974 0.55625,-0.127143 1.04893,-0.127143 0.85822,0 2.7018,0.49268 0.34964,0 0.49268,-0.49268 0,-0.667503 -1.84358,-0.905896 l -1.00126,-0.09536 q -3.62358,0 -4.67251,2.526974 -0.27018,0.683396 -0.41322,1.668757 0,1.7959 2.30447,2.526974 0.57215,0.174822 3.05144,0.349644 1.98662,0.460895 3.06734,1.446256 1.35089,1.382684 1.35089,2.749475 v 0.49268 q 0,2.336259 -2.70179,3.909658 -1.46215,0.683396 -2.84483,0.683396 h -0.76286 q -3.00377,0 -4.10038,-2.336259 -0.2225,-0.715182 -0.2225,-1.319113 v -0.03178 q 0.0795,-0.635717 0.49268,-0.635717 h 0.27018 q 0.36554,0.01589 0.36554,0.985361 0,0.619824 0.76286,1.493934 1.1125,0.76286 2.79715,0.76286 3.49645,0 4.68841,-2.701796 0.12715,-0.524466 0.17483,-0.985361 0,-2.256794 -2.84484,-3.21037 -0.63571,-0.254286 -3.14679,-0.397323 -1.71644,-0.349644 -2.74948,-1.25554 -1.03304,-1.176076 -1.03304,-2.304473 v -0.27018 q 0,-2.368045 2.06608,-4.148052 1.5734,-1.080718 3.78252,-1.080718 z"
           style="font-style:normal;font-variant:normal;font-weight:normal;font-stretch:normal;font-size:32.5487px;font-family:Clip;-inkscape-font-specification:Clip;fill:#ffffff;stroke:#ff0000;stroke-width:0.610289;filter:url(#filter1053)"
           id="path1044" />
        <path
           d="m 170.04971,68.898372 h 0.69929 q 3.52822,0 5.46716,3.273942 1.00125,1.7959 1.00125,4.291088 v 0.603931 q 0,1.048932 -1.47804,1.319112 h -8.78878 q -1.5734,-0.190715 -1.5734,-1.52572 0.2225,-1.541613 1.52572,-1.541613 h 7.16771 q 0.36553,0 0.47678,0.49268 v 0.127144 q 0,0.365537 -0.52446,0.476787 h -7.07235 q -0.47679,0 -0.47679,0.445002 0.0318,0.429109 0.42911,0.429109 h 8.83646 q 0.38143,0 0.38143,-0.349645 v -0.524466 q 0,-4.450017 -3.3534,-6.023416 -1.06483,-0.397323 -1.97072,-0.397323 h -0.22251 q -0.0953,0 -0.17482,-0.04768 -0.0795,0.04768 -0.17482,0.04768 h -0.12714 q -3.90966,0 -5.76913,4.322874 -0.52447,1.827686 -0.52447,3.242155 0,5.212878 4.7202,7.024671 1.47804,0.397323 2.44751,0.397323 2.22501,0 4.84734,-1.223755 h 0.0477 q 0.52446,0.127143 0.52446,0.524466 v 0.04768 q 0,0.826432 -3.94144,1.621078 -0.47679,0.07946 -1.08072,0.07946 h -0.74697 q -2.92429,0 -5.51484,-2.272687 -2.35215,-2.431617 -2.35215,-5.721451 v -0.794646 q 0,-3.750729 2.52697,-6.373061 2.11376,-1.970722 4.76788,-1.970722 z"
           style="font-style:normal;font-variant:normal;font-weight:normal;font-stretch:normal;font-size:32.5487px;font-family:Clip;-inkscape-font-specification:Clip;fill:#ffffff;stroke:#ff0000;stroke-width:0.610289;filter:url(#filter1049)"
           id="path1046" />
      </g>
    </g>
  </g>
  <g
     inkscape:groupmode="layer"
     id="layer5"
     inkscape:label="Layer 2"
     transform="translate(-4.537695,-8.0594271)">
    <g
       id="g1266"
       transform="translate(0.79302962,-51.381114)"
       style="filter:url(#filter1283)">
      <g
         aria-label="Dance Muse
"
         id="g1264"
         style="font-style:normal;font-weight:normal;font-size:32.5488px;line-height:1.25;font-family:sans-serif;fill:#ffffff;fill-opacity:1;stroke:#ff0000;stroke-width:0.610289;filter:url(#filter1012)">
        <path
           d="m 13.202496,62.795491 h 0.905897 q 7.247171,0 10.250933,5.101627 1.287326,2.383938 1.287326,5.196985 v 1.017147 q 0,7.215385 -6.484311,10.250933 -3.289834,1.223754 -6.325382,1.223754 h -1.493934 q -4.1321591,-0.143036 -4.1321591,-0.635716 -0.095357,0 -0.1112505,-0.27018 V 63.812638 q 0,-0.49268 0.6833956,-0.588038 0.588038,0.174822 0.588038,0.588038 v 20.231686 q 1.954829,0.206608 3.671264,0.27018 8.884142,0 11.474688,-6.007523 0.842325,-2.161437 0.842325,-4.62484 0,-7.29485 -6.468418,-9.074857 -1.923044,-0.476787 -3.830194,-0.476787 h -0.858218 q -1.748221,0 -2.066079,1.589292 v 16.512743 q 0,0.969468 -0.746967,0.969468 Q 9.8014117,83.027178 9.8014117,82.613962 V 65.719789 q 0,-1.525721 1.7641143,-2.55876 0.76286,-0.365538 1.63697,-0.365538 z"
           style="font-style:normal;font-variant:normal;font-weight:normal;font-stretch:normal;font-size:32.5487px;font-family:Clip;-inkscape-font-specification:Clip;fill:#ffffff;stroke:#ff0000;stroke-width:0.610289;filter:url(#filter1081)"
           id="path1246" />
        <path
           d="m 34.864545,69.152659 h 0.683396 q 2.717689,0 4.736089,2.17733 1.096612,1.52572 1.096612,3.099119 v 0.810539 q 0,5.562522 0.127143,8.725213 0,0.87411 -1.319112,1.287326 -0.158929,0.03179 -0.38143,0.03179 h -0.206608 q -1.382684,0 -1.541613,-1.652864 -0.238394,-7.120027 -0.413216,-7.120027 -0.301966,-0.460895 -1.335005,-0.460895 -4.052695,0 -5.912166,2.638225 -0.508574,1.001253 -0.508574,1.954829 v 0.476787 q 0,2.892512 3.655372,3.401085 0.286072,0 0.731074,0.04768 1.048933,0 2.638225,-0.858218 0.556252,0.11125 0.556252,0.508573 -0.04768,0.874111 -2.813047,1.366791 h -0.731074 q -3.21037,0 -4.672518,-2.558759 -0.429109,-1.001254 -0.429109,-1.827686 V 80.56378 q 0,-3.162691 3.750729,-4.895019 1.795899,-0.683396 3.734836,-0.683396 1.923043,0 2.431616,1.446256 0.127144,0.476788 0.429109,7.580923 0.222501,0.206607 0.38143,0.206607 h 0.301966 q 0.635716,-0.07946 0.635716,-0.429108 -0.174822,-0.969468 -0.174822,-9.36093 0,-2.209116 -2.256794,-3.575907 -1.446256,-0.683395 -2.765368,-0.683395 -2.495189,0 -4.767876,1.287326 l -0.174822,0.03179 q -0.508573,-0.127143 -0.508573,-0.588038 0,-0.635717 2.987868,-1.493934 1.191969,-0.254287 2.034294,-0.254287 z"
           style="font-style:normal;font-variant:normal;font-weight:normal;font-stretch:normal;font-size:32.5487px;font-family:Clip;-inkscape-font-specification:Clip;fill:#ffffff;stroke:#ff0000;stroke-width:0.610289;filter:url(#filter1077)"
           id="path1248" />
        <path
           d="m 53.077831,68.421585 h 0.603931 q 4.020908,0 5.530735,4.100373 0.333752,1.239648 0.333752,1.938936 0.03179,7.708066 0.03179,11.029686 0,0.301965 -0.460895,0.413216 h -0.27018 q -0.11125,-0.03179 -0.365537,-0.317859 -0.04768,-1.366791 -0.04768,-1.764114 0,-2.39983 -0.04768,-9.360929 0,-2.209116 -1.748222,-3.909658 -1.335005,-0.969468 -2.908404,-0.969468 h -0.286072 q -0.03179,0 -0.03179,-0.04768 l -0.09536,0.04768 h -0.333751 q -2.463402,0 -3.687157,3.226263 -0.413216,1.589291 -0.413216,2.67001 v 8.025924 q 0,1.811793 -1.382684,2.352152 l -0.460895,0.04768 H 46.6253 q -1.605184,0 -1.843578,-2.161437 -0.09536,-11.744867 -0.09536,-14.669164 0.254287,-0.333752 0.508574,-0.333752 h 0.09536 q 0.556252,0 0.556252,1.207862 v 0.413216 q 0,1.684649 0.07946,13.461302 0,0.92179 0.890003,0.92179 v 0.04768 q 0.92179,0 0.92179,-1.144291 V 75.5734 q 0,-4.100373 2.67001,-6.325381 1.350898,-0.826432 2.670011,-0.826432 z"
           style="font-style:normal;font-variant:normal;font-weight:normal;font-stretch:normal;font-size:32.5487px;font-family:Clip;-inkscape-font-specification:Clip;fill:#ffffff;stroke:#ff0000;stroke-width:0.610289;filter:url(#filter1073)"
           id="path1250" />
        <path
           d="m 71.148082,68.99373 h 0.842325 q 1.652863,0 3.099119,0.667503 0.667503,0.572145 0.667503,1.239647 v 0.222501 q 0,1.064826 -1.287327,1.541613 -0.238394,0.04768 -0.349644,0.04768 -1.446256,-0.349644 -2.622332,-0.349644 h -0.04768 q -3.5918,0 -4.529482,3.099119 -0.174823,0.699288 -0.301966,2.44751 -0.286072,0.270179 -0.49268,0.270179 -0.397323,0 -0.572145,-0.540359 0,-4.386446 3.146798,-5.848594 1.271433,-0.54036 2.701796,-0.54036 h 0.04768 q 1.287326,0 2.797153,0.349645 0.445002,-0.27018 0.445002,-0.572145 0,-0.65161 -1.732328,-0.842325 -0.572145,-0.07946 -1.462149,-0.127144 -3.877872,0 -6.388953,3.273942 -1.287327,1.986615 -1.287327,4.434124 0,5.181092 4.481804,6.929313 1.589291,0.397323 2.749475,0.397323 1.986614,0 4.354659,-0.890003 h 0.03179 q 0.365537,0 0.492681,0.49268 v 0.127143 q 0,0.842325 -4.211624,1.335006 h -1.112504 q -4.08448,0 -6.468418,-3.321621 -1.382684,-2.161437 -1.382684,-4.624839 v -0.842325 q 0,-4.08448 3.591799,-6.786276 2.288581,-1.589292 4.799662,-1.589292 z"
           style="font-style:normal;font-variant:normal;font-weight:normal;font-stretch:normal;font-size:32.5487px;font-family:Clip;-inkscape-font-specification:Clip;fill:#ffffff;stroke:#ff0000;stroke-width:0.610289;filter:url(#filter1069)"
           id="path1252" />
        <path
           d="m 86.405284,68.898372 h 0.699288 q 3.528228,0 5.467164,3.273942 1.001254,1.7959 1.001254,4.291088 v 0.603931 q 0,1.048932 -1.478041,1.319112 h -8.788784 q -1.573399,-0.190715 -1.573399,-1.52572 0.2225,-1.541613 1.52572,-1.541613 h 7.167706 q 0.365537,0 0.476788,0.49268 v 0.127144 q 0,0.365537 -0.524466,0.476787 h -7.072349 q -0.476788,0 -0.476788,0.445002 0.03179,0.429109 0.429109,0.429109 h 8.836463 q 0.38143,0 0.38143,-0.349645 v -0.524466 q 0,-4.450017 -3.353406,-6.023416 -1.064826,-0.397323 -1.970722,-0.397323 H 86.92975 q -0.09536,0 -0.174822,-0.04768 -0.07947,0.04768 -0.174822,0.04768 h -0.127143 q -3.909659,0 -5.76913,4.322874 -0.524466,1.827686 -0.524466,3.242155 0,5.212878 4.720197,7.024671 1.478041,0.397323 2.447509,0.397323 2.225009,0 4.84734,-1.223755 h 0.04768 q 0.524467,0.127143 0.524467,0.524466 v 0.04768 q 0,0.826432 -3.941444,1.621078 -0.476788,0.07946 -1.080719,0.07946 H 86.97743 q -2.924297,0 -5.514843,-2.272687 -2.352152,-2.431617 -2.352152,-5.721451 v -0.794646 q 0,-3.750729 2.526974,-6.373061 2.113758,-1.970722 4.767876,-1.970722 z"
           style="font-style:normal;font-variant:normal;font-weight:normal;font-stretch:normal;font-size:32.5487px;font-family:Clip;-inkscape-font-specification:Clip;fill:#ffffff;stroke:#ff0000;stroke-width:0.610289;filter:url(#filter1065)"
           id="path1254" />
        <path
           d="m 106.76411,62.795491 h 0.2225 q 0.54036,0.111251 0.54036,0.54036 l -1.3509,20.358829 q 0,0.492681 0.63572,0.603931 0.65161,0 0.65161,-1.14429 0.85821,-16.083634 0.96946,-17.227924 0.30197,-0.381431 0.58804,-0.381431 0.74697,0 0.96947,1.446256 l 5.45127,16.814709 q 0.30197,0.317858 0.54036,0.317858 h 0.20661 q 0.68339,0 1.03304,-1.764114 l 5.70556,-18.594715 q 0.6675,-0.969469 1.62107,-0.969469 h 0.42911 q 1.11251,0 1.66876,1.557507 1.28733,19.643648 1.28733,20.740259 0,0.365537 -0.54036,0.49268 h -0.20661 q -0.65161,0 -0.65161,-1.716435 -1.1284,-18.451679 -1.23965,-19.357575 -0.2225,-0.429109 -0.58804,-0.429109 -0.6675,0 -0.85821,1.303219 l -5.81681,18.960253 q -0.79465,1.128397 -1.84358,1.128397 H 115.982 q -1.76411,0 -2.36804,-3.019655 -0.92179,-2.590545 -4.0527,-12.603084 h -0.0477 q -0.71518,14.605592 -0.85822,14.605592 -0.63571,1.128397 -1.66875,1.128397 h -0.49268 q -1.1284,0 -1.66876,-1.668756 V 83.69468 q 1.28733,-20.025078 1.46215,-20.629009 0.27018,-0.27018 0.47679,-0.27018 z"
           style="font-style:normal;font-variant:normal;font-weight:normal;font-stretch:normal;font-size:32.5487px;font-family:Clip;-inkscape-font-specification:Clip;fill:#ffffff;stroke:#ff0000;stroke-width:0.610289;filter:url(#filter1061)"
           id="path1256" />
        <path
           d="m 131.55707,68.977837 h 0.27018 q 0.0954,0.03179 0.34964,0.317858 0.0477,1.319113 0.0477,1.68465 0,2.336259 0.0477,9.074857 0,2.145544 1.70054,3.798407 1.28733,0.937683 2.81305,0.937683 h 0.27018 q 0.0477,0 0.0477,0.04768 l 0.0795,-0.04768 h 0.31786 q 2.38394,0 3.57591,-3.130906 0.39732,-1.541613 0.39732,-2.590545 v -7.771638 q 0,-1.764114 1.33501,-2.272687 l 0.445,-0.04768 h 0.41321 q 1.54162,0 1.78001,2.097865 0.0954,11.363438 0.0954,14.20827 -0.25429,0.301965 -0.49268,0.301965 h -0.0954 q -0.54036,0 -0.54036,-1.160183 V 84.02843 q 0,-1.63697 -0.0795,-13.048086 0,-0.890004 -0.85822,-0.890004 v -0.04768 q -0.89001,0 -0.89001,1.128397 v 7.803423 q 0,3.97323 -2.59054,6.118774 -1.30322,0.810539 -2.59055,0.810539 h -0.57214 q -3.89377,0 -5.37181,-3.97323 -0.30196,-1.191969 -0.30196,-1.875364 -0.0477,-7.453779 -0.0477,-10.680042 0,-0.301965 0.445,-0.397323 z"
           style="font-style:normal;font-variant:normal;font-weight:normal;font-stretch:normal;font-size:32.5487px;font-family:Clip;-inkscape-font-specification:Clip;fill:#ffffff;stroke:#ff0000;stroke-width:0.610289;filter:url(#filter1057)"
           id="path1258" />
        <path
           d="m 154.57001,68.469264 h 0.68339 q 1.66876,0 2.97198,0.76286 0.58803,0.556252 0.63571,1.223754 v 0.04768 q 0,1.14429 -1.31911,1.621078 -0.2225,0.04768 -0.445,0.04768 -1.7959,-0.508574 -2.65412,-0.508574 -1.60518,0 -1.84358,1.493935 -0.0795,0.635716 -0.49268,0.635716 h -0.27018 q -0.36553,-0.206607 -0.36553,-0.508573 v -0.07946 q 0,-1.780006 2.0184,-2.526974 0.55625,-0.127143 1.04893,-0.127143 0.85822,0 2.7018,0.49268 0.34964,0 0.49268,-0.49268 0,-0.667503 -1.84358,-0.905896 l -1.00126,-0.09536 q -3.62358,0 -4.67251,2.526974 -0.27018,0.683396 -0.41322,1.668757 0,1.7959 2.30447,2.526974 0.57215,0.174822 3.05144,0.349644 1.98662,0.460895 3.06734,1.446256 1.35089,1.382684 1.35089,2.749475 v 0.49268 q 0,2.336259 -2.70179,3.909658 -1.46215,0.683396 -2.84483,0.683396 h -0.76286 q -3.00377,0 -4.10038,-2.336259 -0.2225,-0.715182 -0.2225,-1.319113 v -0.03178 q 0.0795,-0.635717 0.49268,-0.635717 h 0.27018 q 0.36554,0.01589 0.36554,0.985361 0,0.619824 0.76286,1.493934 1.1125,0.76286 2.79715,0.76286 3.49645,0 4.68841,-2.701796 0.12715,-0.524466 0.17483,-0.985361 0,-2.256794 -2.84484,-3.21037 -0.63571,-0.254286 -3.14679,-0.397323 -1.71644,-0.349644 -2.74948,-1.25554 -1.03304,-1.176076 -1.03304,-2.304473 v -0.27018 q 0,-2.368045 2.06608,-4.148052 1.5734,-1.080718 3.78252,-1.080718 z"
           style="font-style:normal;font-variant:normal;font-weight:normal;font-stretch:normal;font-size:32.5487px;font-family:Clip;-inkscape-font-specification:Clip;fill:#ffffff;stroke:#ff0000;stroke-width:0.610289;filter:url(#filter1053)"
           id="path1260" />
        <path
           d="m 170.04971,68.898372 h 0.69929 q 3.52822,0 5.46716,3.273942 1.00125,1.7959 1.00125,4.291088 v 0.603931 q 0,1.048932 -1.47804,1.319112 h -8.78878 q -1.5734,-0.190715 -1.5734,-1.52572 0.2225,-1.541613 1.52572,-1.541613 h 7.16771 q 0.36553,0 0.47678,0.49268 v 0.127144 q 0,0.365537 -0.52446,0.476787 h -7.07235 q -0.47679,0 -0.47679,0.445002 0.0318,0.429109 0.42911,0.429109 h 8.83646 q 0.38143,0 0.38143,-0.349645 v -0.524466 q 0,-4.450017 -3.3534,-6.023416 -1.06483,-0.397323 -1.97072,-0.397323 h -0.22251 q -0.0953,0 -0.17482,-0.04768 -0.0795,0.04768 -0.17482,0.04768 h -0.12714 q -3.90966,0 -5.76913,4.322874 -0.52447,1.827686 -0.52447,3.242155 0,5.212878 4.7202,7.024671 1.47804,0.397323 2.44751,0.397323 2.22501,0 4.84734,-1.223755 h 0.0477 q 0.52446,0.127143 0.52446,0.524466 v 0.04768 q 0,0.826432 -3.94144,1.621078 -0.47679,0.07946 -1.08072,0.07946 h -0.74697 q -2.92429,0 -5.51484,-2.272687 -2.35215,-2.431617 -2.35215,-5.721451 v -0.794646 q 0,-3.750729 2.52697,-6.373061 2.11376,-1.970722 4.76788,-1.970722 z"
           style="font-style:normal;font-variant:normal;font-weight:normal;font-stretch:normal;font-size:32.5487px;font-family:Clip;-inkscape-font-specification:Clip;fill:#ffffff;stroke:#ff0000;stroke-width:0.610289;filter:url(#filter1049)"
           id="path1262" />
      </g>
    </g>
  </g>
</svg>
