<svg version="1.1" viewBox="0.0 0.0 960.0 540.0" fill="none" stroke="none" stroke-linecap="square" stroke-miterlimit="10" xmlns:xlink="http://www.w3.org/1999/xlink" xmlns="http://www.w3.org/2000/svg"><clipPath id="gc92dd3feed_0_15.0"><path d="m0 0l960.0 0l0 540.0l-960.0 0l0 -540.0z" clip-rule="nonzero"/></clipPath><g clip-path="url(#gc92dd3feed_0_15.0)"><path fill="#000000" fill-opacity="0.0" d="m0 0l960.0 0l0 540.0l-960.0 0z" fill-rule="evenodd"/><path fill="#000000" fill-opacity="0.0" d="m278.6018 270.9505l0 0c0 -71.36214 57.857513 -129.2126 129.22836 -129.2126l0 0c34.273468 0 67.14322 13.613434 91.378235 37.845505c24.235016 24.232056 37.85013 57.097794 37.85013 91.367096l0 0c0 71.36215 -57.857544 129.21262 -129.22836 129.21262l0 0c-71.37085 0 -129.22836 -57.850464 -129.22836 -129.21262z" fill-rule="evenodd"/><path stroke="#131313" stroke-width="24.0" stroke-linejoin="round" stroke-linecap="butt" d="m278.6018 270.9505l0 0c0 -71.36214 57.857513 -129.2126 129.22836 -129.2126l0 0c34.273468 0 67.14322 13.613434 91.378235 37.845505c24.235016 24.232056 37.85013 57.097794 37.85013 91.367096l0 0c0 71.36215 -57.857544 129.21262 -129.22836 129.21262l0 0c-71.37085 0 -129.22836 -57.850464 -129.22836 -129.21262z" fill-rule="evenodd"/><path fill="#000000" fill-opacity="0.0" d="m479.3841 268.8189l0 0c0 -71.36214 57.857483 -129.21259 129.22833 -129.21259l0 0c34.2735 0 67.14325 13.613419 91.378235 37.84549c24.235046 24.232056 37.850098 57.097794 37.850098 91.367096l0 0c0 71.36215 -57.857483 129.21262 -129.22833 129.21262l0 0c-71.37085 0 -129.22833 -57.850464 -129.22833 -129.21262z" fill-rule="evenodd"/><path stroke="#eb0707" stroke-width="24.0" stroke-linejoin="round" stroke-linecap="butt" d="m479.3841 268.8189l0 0c0 -71.36214 57.857483 -129.21259 129.22833 -129.21259l0 0c34.2735 0 67.14325 13.613419 91.378235 37.84549c24.235046 24.232056 37.850098 57.097794 37.850098 91.367096l0 0c0 71.36215 -57.857483 129.21262 -129.22833 129.21262l0 0c-71.37085 0 -129.22833 -57.850464 -129.22833 -129.21262z" fill-rule="evenodd"/><path fill="#000000" fill-opacity="0.0" d="m482.7699 72.88353l251.68506 0l0 41.51181l-251.68506 0z" fill-rule="evenodd"/><path fill="#eb0707" d="m517.6403 112.21541q-0.0625 0.03125 -0.125 0.03125q-0.046875 0 -0.234375 0q-0.40625 0 -0.953125 -0.140625q-0.53125 -0.125 -1.046875 -0.328125q-0.515625 -0.1875 -0.890625 -0.421875q-0.359375 -0.234375 -0.453125 -0.40625q-0.03125 -0.40625 -0.03125 -0.84375q0 -0.4375 0 -0.859375q0 -3.28125 0.484375 -6.859375q0.484375 -3.578125 1.609375 -7.734375q0.109375 -0.421875 0.234375 -1.046875q0.140625 -0.625 0.28125 -1.359375q-0.703125 0.546875 -1.671875 1.765625q-0.953125 1.21875 -2.03125 2.875q-1.0624695 1.65625 -2.1405945 3.640625q-1.078125 1.984375 -1.953125 4.03125q-0.875 2.03125 -1.515625 4.03125q-0.625 1.984375 -0.765625 3.6875q-1.40625 -0.421875 -1.953125 -0.828125q-0.546875 -0.40625 -0.546875 -1.0q0 -0.53125 0.328125 -1.484375q0.328125 -0.96875 0.90625 -2.28125q0.59375 -1.328125 1.4375 -2.953125q0.84375 -1.640625 1.875 -3.515625q1.171875 -2.140625 2.296875 -4.015625q1.140625 -1.875 2.2187195 -3.390625q1.09375 -1.53125 2.125 -2.640625q1.046875 -1.125 2.078125 -1.703125q0.40625 0 1.09375 0.203125q0.6875 0.203125 1.34375 0.5q0.671875 0.28125 1.171875 0.59375q0.515625 0.3125 0.578125 0.515625q-0.40625 0.8125 -0.96875 2.46875q-0.5625 1.640625 -1.140625 3.71875q-0.5625 2.078125 -1.078125 4.421875q-0.5 2.328125 -0.796875 4.46875q0.671875 -1.625 1.5625 -3.359375q0.890625 -1.75 1.890625 -3.46875q1.0 -1.71875 2.03125 -3.328125q1.046875 -1.609375 2.046875 -2.9375q1.0 -1.34375 1.859375 -2.328125q0.875 -1.0 1.546875 -1.46875q0.40625 0 1.09375 0.203125q0.6875 0.203125 1.34375 0.5q0.671875 0.28125 1.1875 0.59375q0.515625 0.3125 0.5625 0.515625q-0.9375 1.671875 -1.640625 4.078125q-0.703125 2.40625 -1.1875 5.046875q-0.484375 2.640625 -0.734375 5.234375q-0.25 2.59375 -0.25 4.640625q0 0.671875 0 1.40625q0 0.734375 0.0625 1.53125q-0.40625 0 -0.984375 -0.109375q-0.5625 -0.09375 -1.109375 -0.28125q-0.546875 -0.171875 -0.984375 -0.390625q-0.4375 -0.21875 -0.609375 -0.484375q-0.03125 -0.40625 -0.03125 -0.84375q0 -0.4375 0 -0.859375q0 -3.28125 0.484375 -6.859375q0.484375 -3.578125 1.59375 -7.734375q0.109375 -0.421875 0.25 -1.125q0.15625 -0.703125 0.3125 -1.46875q-0.828125 0.421875 -1.875 1.578125q-1.03125 1.15625 -2.109375 2.8125q-1.0625 1.65625 -2.109375 3.6875q-1.046875 2.015625 -1.890625 4.109375q-0.828125 2.09375 -1.40625 4.171875q-0.5625 2.0625 -0.671875 3.796875zm24.784363 -14.015625q0.28125 0 0.671875 0.109375q0.40625 0.09375 0.71875 0.25q0.328125 0.15625 0.546875 0.34375q0.234375 0.171875 0.234375 0.3125q-0.59375 1.234375 -1.09375 2.484375q-0.5 1.25 -0.859375 2.390625q-0.34375 1.140625 -0.53125 2.140625q-0.1875 1.0 -0.1875 1.734375q0 0.8125 0.171875 1.359375q0.171875 0.546875 0.59375 0.78125q-0.359375 0.234375 -0.921875 0.375q-0.546875 0.15625 -0.984375 0.15625q-1.59375 0 -1.59375 -2.171875q0 -1.671875 1.109375 -4.578125q-0.578125 1.34375 -1.34375 2.53125q-0.765625 1.1875 -1.5625 2.109375q-0.78125 0.90625 -1.59375 1.484375q-0.796875 0.5625 -1.46875 0.671875q-1.09375 -0.046875 -1.765625 -1.03125q-0.671875 -0.984375 -0.671875 -2.515625q0 -1.640625 0.703125 -3.453125q0.703125 -1.828125 1.796875 -3.375q1.109375 -1.5625 2.390625 -2.59375q1.296875 -1.046875 2.5 -1.109375q0.296875 0.09375 0.65625 0.359375q0.359375 0.265625 0.703125 0.625q0.34375 0.34375 0.578125 0.71875q0.234375 0.359375 0.265625 0.625q-1.1875 0.171875 -2.4375 1.140625q-1.234375 0.96875 -2.25 2.328125q-1.015625 1.359375 -1.65625 2.921875q-0.640625 1.546875 -0.640625 2.90625q0 0.546875 0.40625 0.703125q0.859375 -0.1875 1.96875 -1.453125q1.109375 -1.28125 2.703125 -3.953125q0.28125 -0.515625 0.640625 -1.15625q0.375 -0.65625 0.75 -1.359375q0.390625 -0.703125 0.75 -1.421875q0.375 -0.71875 0.703125 -1.390625zm3.5964355 6.6875q0 -1.671875 0.6875 -3.234375q0.703125 -1.578125 1.828125 -2.796875q1.125 -1.21875 2.578125 -1.96875q1.453125 -0.75 3.0 -0.75q1.53125 0 2.34375 0.765625q0.828125 0.765625 0.828125 2.171875q0 0.671875 -0.1875 1.3125q-0.1875 0.625 -0.5 1.125q-0.3125 0.5 -0.71875 0.8125q-0.40625 0.296875 -0.828125 0.296875q-0.34375 0 -0.71875 -0.21875q-0.359375 -0.21875 -0.59375 -0.578125q1.96875 -1.78125 1.96875 -3.25q0 -0.84375 -0.671875 -0.84375q-0.59375 0 -1.484375 0.5625q-0.875 0.546875 -1.6875 1.453125q-1.265625 1.40625 -1.921875 3.125q-0.65625 1.71875 -0.65625 3.59375q0 2.375 1.046875 2.84375q0.4375 -0.0625 1.015625 -0.265625q0.59375 -0.203125 1.265625 -0.53125q0.6875 -0.34375 1.40625 -0.78125q0.71875 -0.4375 1.390625 -0.9375q0.109375 0.078125 0.203125 0.265625q0.09375 0.171875 0.09375 0.3125q-0.5 0.625 -1.15625 1.21875q-0.640625 0.578125 -1.34375 1.0625q-0.703125 0.484375 -1.359375 0.8125q-0.65625 0.34375 -1.15625 0.421875q-0.96875 -0.078125 -1.828125 -0.59375q-0.84375 -0.515625 -1.484375 -1.328125q-0.625 -0.828125 -1.0 -1.875q-0.359375 -1.0625 -0.359375 -2.203125zm12.114685 4.65625q0 -1.03125 0.203125 -2.421875q0.203125 -1.390625 0.59375 -2.96875q0.40625 -1.59375 0.953125 -3.3125q0.546875 -1.734375 1.21875 -3.46875q0.578125 -1.546875 1.359375 -3.125q0.78125 -1.59375 1.6875 -3.109375q0.90625 -1.53125 1.890625 -2.90625q0.984375 -1.390625 1.984375 -2.53125q0.46875 0 1.0 0.125q0.546875 0.109375 1.0625 0.3125q0.515625 0.1875 0.9375 0.453125q0.421875 0.25 0.6875 0.515625q-2.203125 2.265625 -3.96875 4.5625q-1.75 2.296875 -2.765625 4.328125q-0.5625 1.109375 -1.015625 2.078125q-0.453125 0.96875 -0.84375 1.921875q-0.375 0.953125 -0.6875 1.90625q-0.3125 0.953125 -0.5625 2.015625q5.625 -7.1875 8.359375 -7.1875q0.75 0 1.625 0.5q0.890625 0.5 1.5625 1.34375q-0.90625 1.0 -1.875 2.40625q-0.96875 1.40625 -1.78125 2.828125q-0.796875 1.421875 -1.3125 2.640625q-0.515625 1.21875 -0.515625 1.8125q0 0.28125 0.078125 0.390625q0.09375 0.09375 0.390625 0.09375q0.4375 0 0.703125 -0.109375q0.265625 -0.125 0.328125 -0.125q0.140625 0.234375 0.171875 0.328125q0.03125 0.09375 0.03125 0.140625q0 0.125 -0.359375 0.34375q-0.34375 0.21875 -0.828125 0.4375q-0.484375 0.21875 -0.953125 0.390625q-0.46875 0.1875 -0.703125 0.1875q-0.296875 0 -0.59375 -0.171875q-0.28125 -0.15625 -0.515625 -0.421875q-0.21875 -0.265625 -0.34375 -0.578125q-0.125 -0.328125 -0.125 -0.671875q0 -0.453125 0.234375 -1.3125q0.25 -0.859375 0.6875 -2.015625q0.453125 -1.171875 1.0625 -2.546875q0.625 -1.375 1.328125 -2.8125q0 -0.125 -0.125 -0.125q-0.078125 0 -0.453125 0.234375q-0.359375 0.234375 -0.6875 0.46875q-1.0625 0.796875 -2.140625 1.953125q-1.0625 1.15625 -2.078125 2.546875q-1.0 1.375 -1.90625 2.921875q-0.890625 1.53125 -1.53125 3.078125q-0.09375 0.21875 -0.265625 0.390625q-0.171875 0.171875 -0.296875 0.171875q-0.078125 0 -0.25 -0.203125q-0.15625 -0.203125 -0.296875 -0.515625q-0.125 -0.3125 -0.25 -0.640625q-0.109375 -0.3125 -0.109375 -0.546875zm15.225159 -1.46875q0 -0.265625 0.046875 -0.65625q0.046875 -0.390625 0.15625 -1.046875q0.125 -0.671875 0.3125 -1.609375q0.1875 -0.9375 0.484375 -2.25q0.0625 -0.296875 0.265625 -0.9375q0.203125 -0.65625 0.53125 -1.375q0.34375 -0.71875 0.828125 -1.390625q0.484375 -0.671875 1.15625 -1.0q0.5 0.125 1.3125 0.609375q0.828125 0.484375 1.421875 1.328125q-0.6875 0.765625 -1.140625 1.53125q-0.453125 0.765625 -0.828125 1.59375q-0.359375 0.8125 -0.671875 1.6875q-0.296875 0.875 -0.671875 1.84375q-0.328125 0.828125 -0.59375 1.703125q-0.265625 0.859375 -0.296875 1.5q0 0.53125 -0.015625 0.75q-0.015625 0.21875 -0.15625 0.21875q-0.125 0 -0.484375 -0.15625q-0.34375 -0.140625 -0.71875 -0.4375q-0.359375 -0.3125 -0.65625 -0.78125q-0.28125 -0.46875 -0.28125 -1.125zm5.59375 -12.71875q0 -0.1875 0.09375 -0.53125q-0.140625 -0.15625 -0.25 -0.4375q-0.09375 -0.296875 -0.09375 -0.53125q0 -0.265625 0.0625 -0.71875q0.078125 -0.453125 0.1875 -0.984375q0.125 -0.53125 0.296875 -1.09375q0.171875 -0.578125 0.359375 -1.046875q0.34375 0 0.859375 0.1875q0.515625 0.1875 1.046875 0.5q0.53125 0.3125 0.96875 0.6875q0.4375 0.359375 0.671875 0.671875q-0.328125 0.328125 -0.859375 0.90625q-0.515625 0.5625 -1.015625 1.203125q-0.5 0.625 -0.921875 1.1875q-0.40625 0.546875 -0.515625 0.78125q-0.359375 -0.046875 -0.625 -0.296875q-0.265625 -0.25 -0.265625 -0.484375zm6.0463867 0.46875q0.765625 0.234375 1.4375 1.046875q0.671875 0.796875 1.0 1.765625q-0.328125 0.796875 -1.0 1.90625q-0.671875 1.109375 -1.34375 2.265625q-0.671875 1.15625 -1.21875 2.203125q-0.546875 1.046875 -0.625 1.71875q0.46875 -0.5 1.03125 -1.15625q0.578125 -0.65625 1.109375 -1.3125q0.546875 -0.671875 1.015625 -1.203125q0.46875 -0.546875 0.734375 -0.8125q0.5625 -0.59375 1.3125 -1.359375q0.765625 -0.78125 1.59375 -1.46875q0.84375 -0.703125 1.6875 -1.171875q0.859375 -0.484375 1.5625 -0.484375q0.765625 0 1.28125 0.515625q0.515625 0.5 0.8125 1.0625q0 0.0625 -0.234375 0.171875q-0.21875 0.09375 -0.625 0.5625q-0.40625 0.53125 -0.921875 1.453125q-0.515625 0.921875 -1.0 2.0q-0.484375 1.0625 -0.8125 2.1875q-0.3125 1.109375 -0.3125 2.015625q0 0.734375 0.1875 0.9375q0.1875 0.203125 0.546875 0.203125q0.328125 0 0.671875 -0.140625q0.359375 -0.15625 0.5625 -0.15625q0.109375 0.0625 0.1875 0.25q0.078125 0.1875 0.078125 0.34375q-0.234375 0.203125 -0.5625 0.40625q-0.328125 0.203125 -0.6875 0.390625q-0.34375 0.171875 -0.6875 0.28125q-0.328125 0.125 -0.59375 0.125q-0.84375 0 -1.390625 -0.25q-0.546875 -0.25 -0.859375 -0.65625q-0.296875 -0.421875 -0.421875 -0.984375q-0.109375 -0.578125 -0.109375 -1.21875q0 -0.359375 0.046875 -0.796875q0.0625 -0.4375 0.234375 -1.03125q0.1875 -0.609375 0.5 -1.4375q0.328125 -0.84375 0.828125 -2.015625q-0.0625 0 -0.796875 0.40625q-0.71875 0.40625 -1.578125 1.265625q-1.375 1.3125 -2.484375 2.609375q-1.09375 1.28125 -2.234375 2.875q-0.640625 0.90625 -1.125 1.53125q-0.484375 0.640625 -0.84375 0.84375q-0.609375 -0.359375 -0.90625 -0.984375q-0.296875 -0.625 -0.4375 -1.3125q0 -0.546875 0.15625 -1.390625q0.15625 -0.859375 0.4375 -1.890625q0.28125 -1.046875 0.6875 -2.1875q0.421875 -1.15625 0.921875 -2.296875q1.109375 -2.578125 2.03125 -4.046875q0.921875 -1.46875 1.15625 -1.578125zm21.58722 2.078125q-0.109375 1.8125 -0.640625 3.125q-0.53125 1.296875 -1.515625 2.28125q-0.984375 0.984375 -2.390625 1.78125q-1.40625 0.78125 -3.28125 1.515625q0 0.1875 -0.015625 0.375q-0.015625 0.1875 -0.015625 0.390625q0 0.390625 0.0625 0.796875q0.0625 0.40625 0.203125 0.765625q0.140625 0.34375 0.40625 0.5625q0.265625 0.21875 0.671875 0.21875q0.796875 0 1.5625 -0.34375q0.765625 -0.359375 1.453125 -0.859375q0.6875 -0.515625 1.28125 -1.109375q0.609375 -0.609375 1.078125 -1.109375q0.296875 0.265625 0.5 0.5q-1.328125 1.75 -2.90625 2.921875q-1.5625 1.15625 -2.96875 1.46875q-2.015625 -0.234375 -3.15625 -1.46875q-1.125 -1.25 -1.125 -3.015625q0 -1.203125 0.328125 -2.4375q0.34375 -1.25 0.9375 -2.40625q0.609375 -1.171875 1.421875 -2.1875q0.8125 -1.03125 1.734375 -1.796875q0.921875 -0.765625 1.90625 -1.203125q0.984375 -0.4375 1.953125 -0.4375q1.34375 0.171875 2.515625 1.671875zm-2.015625 0.96875q-0.796875 0.109375 -1.65625 0.640625q-0.84375 0.53125 -1.59375 1.421875q-0.75 0.875 -1.375 2.046875q-0.609375 1.171875 -0.953125 2.515625q2.34375 -1.171875 3.890625 -2.890625q1.5625 -1.71875 1.6875 -3.734375zm21.375488 9.5q0.734375 1.265625 0.734375 2.4375q0 0.265625 -0.046875 0.484375q-0.046875 0.21875 -0.109375 0.453125q-0.5 -0.0625 -1.046875 -0.09375q-0.53125 -0.03125 -1.125 -0.03125q-0.703125 0 -1.421875 0.046875q-0.71875 0.046875 -1.59375 0.125q-0.875 0.09375 -1.96875 0.234375q-1.078125 0.15625 -2.515625 0.390625q-0.671875 -0.234375 -1.359375 -0.921875q-0.671875 -0.6875 -1.25 -1.65625q0.296875 -0.640625 0.734375 -1.59375q0.4375 -0.953125 1.015625 -2.3125q0.59375 -1.375 1.3125 -3.203125q0.71875 -1.84375 1.546875 -4.25q0.515625 -1.578125 0.890625 -2.78125q0.390625 -1.203125 0.703125 -2.328125q0.3125 -1.125 0.59375 -2.359375q0.296875 -1.234375 0.65625 -2.84375q1.171875 0.234375 2.03125 0.859375q0.859375 0.625 1.65625 1.8125q-0.234375 0.375 -0.625 1.234375q-0.375 0.84375 -0.890625 2.0625q-0.5 1.21875 -1.125 2.765625q-0.609375 1.53125 -1.28125 3.28125q-0.65625 1.734375 -1.265625 3.265625q-0.609375 1.515625 -1.09375 2.75q-0.484375 1.234375 -0.78125 2.125q-0.296875 0.875 -0.296875 1.3125q0.46875 -0.03125 0.84375 -0.0625q0.390625 -0.03125 0.796875 -0.09375q0.40625 -0.078125 0.890625 -0.171875q0.484375 -0.109375 1.171875 -0.296875q0.578125 -0.140625 1.078125 -0.234375q0.5 -0.109375 0.984375 -0.1875q0.484375 -0.078125 1.0 -0.109375q0.515625 -0.046875 1.15625 -0.109375zm12.812805 -10.46875q-0.109375 1.8125 -0.640625 3.125q-0.53125 1.296875 -1.515625 2.28125q-0.984375 0.984375 -2.390625 1.78125q-1.40625 0.78125 -3.28125 1.515625q0 0.1875 -0.015625 0.375q-0.015625 0.1875 -0.015625 0.390625q0 0.390625 0.0625 0.796875q0.0625 0.40625 0.203125 0.765625q0.140625 0.34375 0.40625 0.5625q0.265625 0.21875 0.671875 0.21875q0.796875 0 1.5625 -0.34375q0.765625 -0.359375 1.453125 -0.859375q0.6875 -0.515625 1.28125 -1.109375q0.609375 -0.609375 1.078125 -1.109375q0.296875 0.265625 0.5 0.5q-1.328125 1.75 -2.90625 2.921875q-1.5625 1.15625 -2.96875 1.46875q-2.015625 -0.234375 -3.15625 -1.46875q-1.125 -1.25 -1.125 -3.015625q0 -1.203125 0.328125 -2.4375q0.34375 -1.25 0.9375 -2.40625q0.609375 -1.171875 1.421875 -2.1875q0.8125 -1.03125 1.734375 -1.796875q0.921875 -0.765625 1.90625 -1.203125q0.984375 -0.4375 1.953125 -0.4375q1.34375 0.171875 2.515625 1.671875zm-2.015625 0.96875q-0.796875 0.109375 -1.65625 0.640625q-0.84375 0.53125 -1.59375 1.421875q-0.75 0.875 -1.375 2.046875q-0.609375 1.171875 -0.953125 2.515625q2.34375 -1.171875 3.890625 -2.890625q1.5625 -1.71875 1.6875 -3.734375zm13.489197 -0.671875q0.28125 0 0.671875 0.109375q0.40625 0.09375 0.71875 0.25q0.328125 0.15625 0.546875 0.34375q0.234375 0.171875 0.234375 0.3125q-0.59375 1.234375 -1.09375 2.484375q-0.5 1.25 -0.859375 2.390625q-0.34375 1.140625 -0.53125 2.140625q-0.1875 1.0 -0.1875 1.734375q0 0.8125 0.171875 1.359375q0.171875 0.546875 0.59375 0.78125q-0.359375 0.234375 -0.921875 0.375q-0.546875 0.15625 -0.984375 0.15625q-1.59375 0 -1.59375 -2.171875q0 -1.671875 1.109375 -4.578125q-0.578125 1.34375 -1.34375 2.53125q-0.765625 1.1875 -1.5625 2.109375q-0.78125 0.90625 -1.59375 1.484375q-0.796875 0.5625 -1.46875 0.671875q-1.09375 -0.046875 -1.765625 -1.03125q-0.671875 -0.984375 -0.671875 -2.515625q0 -1.640625 0.703125 -3.453125q0.703125 -1.828125 1.796875 -3.375q1.109375 -1.5625 2.390625 -2.59375q1.296875 -1.046875 2.5 -1.109375q0.296875 0.09375 0.65625 0.359375q0.359375 0.265625 0.703125 0.625q0.34375 0.34375 0.578125 0.71875q0.234375 0.359375 0.265625 0.625q-1.1875 0.171875 -2.4375 1.140625q-1.234375 0.96875 -2.25 2.328125q-1.015625 1.359375 -1.65625 2.921875q-0.640625 1.546875 -0.640625 2.90625q0 0.546875 0.40625 0.703125q0.859375 -0.1875 1.96875 -1.453125q1.109375 -1.28125 2.703125 -3.953125q0.28125 -0.515625 0.640625 -1.15625q0.375 -0.65625 0.75 -1.359375q0.390625 -0.703125 0.75 -1.421875q0.375 -0.71875 0.703125 -1.390625zm2.9560547 11.25q0.140625 -0.84375 0.5 -2.234375q0.375 -1.390625 0.875 -2.953125q0.5 -1.578125 1.046875 -3.15625q0.5625 -1.59375 1.09375 -2.859375q0.390625 -0.90625 0.671875 -1.40625q0.296875 -0.515625 0.65625 -0.875q0.40625 0.0625 0.84375 0.21875q0.4375 0.140625 0.84375 0.34375q0.421875 0.203125 0.734375 0.421875q0.328125 0.21875 0.5 0.421875q-0.78125 0.9375 -1.390625 2.140625q-0.59375 1.203125 -1.21875 3.078125q1.59375 -1.40625 2.8125 -2.6875q1.21875 -1.296875 2.265625 -2.875q0.171875 -0.15625 0.625 -0.15625q0.40625 0 0.78125 0.140625q0.390625 0.125 0.53125 0.359375q-0.53125 1.40625 -0.53125 2.78125q0 1.296875 0.390625 1.9375q-0.03125 0.1875 -0.40625 0.6875q-0.359375 0.484375 -0.796875 0.9375q-0.796875 -0.421875 -1.421875 -1.140625q-0.609375 -0.71875 -0.90625 -1.5625q-1.375 0.96875 -2.34375 1.890625q-0.96875 0.921875 -1.65625 2.0625q-0.6875 1.125 -1.171875 2.59375q-0.484375 1.453125 -0.921875 3.484375q-0.265625 -0.03125 -0.640625 -0.203125q-0.359375 -0.15625 -0.734375 -0.390625q-0.359375 -0.234375 -0.65625 -0.5q-0.28125 -0.265625 -0.375 -0.5zm17.272339 -13.625q0.765625 0.234375 1.4375 1.046875q0.671875 0.796875 1.0 1.765625q-0.328125 0.796875 -1.0 1.90625q-0.671875 1.109375 -1.34375 2.265625q-0.671875 1.15625 -1.21875 2.203125q-0.546875 1.046875 -0.625 1.71875q0.46875 -0.5 1.03125 -1.15625q0.578125 -0.65625 1.109375 -1.3125q0.546875 -0.671875 1.015625 -1.203125q0.46875 -0.546875 0.734375 -0.8125q0.5625 -0.59375 1.3125 -1.359375q0.765625 -0.78125 1.59375 -1.46875q0.84375 -0.703125 1.6875 -1.171875q0.859375 -0.484375 1.5625 -0.484375q0.765625 0 1.28125 0.515625q0.515625 0.5 0.8125 1.0625q0 0.0625 -0.234375 0.171875q-0.21875 0.09375 -0.625 0.5625q-0.40625 0.53125 -0.921875 1.453125q-0.515625 0.921875 -1.0 2.0q-0.484375 1.0625 -0.8125 2.1875q-0.3125 1.109375 -0.3125 2.015625q0 0.734375 0.1875 0.9375q0.1875 0.203125 0.546875 0.203125q0.328125 0 0.671875 -0.140625q0.359375 -0.15625 0.5625 -0.15625q0.109375 0.0625 0.1875 0.25q0.078125 0.1875 0.078125 0.34375q-0.234375 0.203125 -0.5625 0.40625q-0.328125 0.203125 -0.6875 0.390625q-0.34375 0.171875 -0.6875 0.28125q-0.328125 0.125 -0.59375 0.125q-0.84375 0 -1.390625 -0.25q-0.546875 -0.25 -0.859375 -0.65625q-0.296875 -0.421875 -0.421875 -0.984375q-0.109375 -0.578125 -0.109375 -1.21875q0 -0.359375 0.046875 -0.796875q0.0625 -0.4375 0.234375 -1.03125q0.1875 -0.609375 0.5 -1.4375q0.328125 -0.84375 0.828125 -2.015625q-0.0625 0 -0.796875 0.40625q-0.71875 0.40625 -1.578125 1.265625q-1.375 1.3125 -2.484375 2.609375q-1.09375 1.28125 -2.234375 2.875q-0.640625 0.90625 -1.125 1.53125q-0.484375 0.640625 -0.84375 0.84375q-0.609375 -0.359375 -0.90625 -0.984375q-0.296875 -0.625 -0.4375 -1.3125q0 -0.546875 0.15625 -1.390625q0.15625 -0.859375 0.4375 -1.890625q0.28125 -1.046875 0.6875 -2.1875q0.421875 -1.15625 0.921875 -2.296875q1.109375 -2.578125 2.03125 -4.046875q0.921875 -1.46875 1.15625 -1.578125zm11.118469 12.25q0 -0.265625 0.046875 -0.65625q0.046875 -0.390625 0.15625 -1.046875q0.125 -0.671875 0.3125 -1.609375q0.1875 -0.9375 0.484375 -2.25q0.0625 -0.296875 0.265625 -0.9375q0.203125 -0.65625 0.53125 -1.375q0.34375 -0.71875 0.828125 -1.390625q0.484375 -0.671875 1.15625 -1.0q0.5 0.125 1.3125 0.609375q0.828125 0.484375 1.421875 1.328125q-0.6875 0.765625 -1.140625 1.53125q-0.453125 0.765625 -0.828125 1.59375q-0.359375 0.8125 -0.671875 1.6875q-0.296875 0.875 -0.671875 1.84375q-0.328125 0.828125 -0.59375 1.703125q-0.265625 0.859375 -0.296875 1.5q0 0.53125 -0.015625 0.75q-0.015625 0.21875 -0.15625 0.21875q-0.125 0 -0.484375 -0.15625q-0.34375 -0.140625 -0.71875 -0.4375q-0.359375 -0.3125 -0.65625 -0.78125q-0.28125 -0.46875 -0.28125 -1.125zm5.59375 -12.71875q0 -0.1875 0.09375 -0.53125q-0.140625 -0.15625 -0.25 -0.4375q-0.09375 -0.296875 -0.09375 -0.53125q0 -0.265625 0.0625 -0.71875q0.078125 -0.453125 0.1875 -0.984375q0.125 -0.53125 0.296875 -1.09375q0.171875 -0.578125 0.359375 -1.046875q0.34375 0 0.859375 0.1875q0.515625 0.1875 1.046875 0.5q0.53125 0.3125 0.96875 0.6875q0.4375 0.359375 0.671875 0.671875q-0.328125 0.328125 -0.859375 0.90625q-0.515625 0.5625 -1.015625 1.203125q-0.5 0.625 -0.921875 1.1875q-0.40625 0.546875 -0.515625 0.78125q-0.359375 -0.046875 -0.625 -0.296875q-0.265625 -0.25 -0.265625 -0.484375zm6.0463867 0.46875q0.765625 0.234375 1.4375 1.046875q0.671875 0.796875 1.0 1.765625q-0.328125 0.796875 -1.0 1.90625q-0.671875 1.109375 -1.34375 2.265625q-0.671875 1.15625 -1.21875 2.203125q-0.546875 1.046875 -0.625 1.71875q0.46875 -0.5 1.03125 -1.15625q0.578125 -0.65625 1.109375 -1.3125q0.546875 -0.671875 1.015625 -1.203125q0.46875 -0.546875 0.734375 -0.8125q0.5625 -0.59375 1.3125 -1.359375q0.765625 -0.78125 1.59375 -1.46875q0.84375 -0.703125 1.6875 -1.171875q0.859375 -0.484375 1.5625 -0.484375q0.765625 0 1.28125 0.515625q0.515625 0.5 0.8125 1.0625q0 0.0625 -0.234375 0.171875q-0.21875 0.09375 -0.625 0.5625q-0.40625 0.53125 -0.921875 1.453125q-0.515625 0.921875 -1.0 2.0q-0.484375 1.0625 -0.8125 2.1875q-0.3125 1.109375 -0.3125 2.015625q0 0.734375 0.1875 0.9375q0.1875 0.203125 0.546875 0.203125q0.328125 0 0.671875 -0.140625q0.359375 -0.15625 0.5625 -0.15625q0.109375 0.0625 0.1875 0.25q0.078125 0.1875 0.078125 0.34375q-0.234375 0.203125 -0.5625 0.40625q-0.328125 0.203125 -0.6875 0.390625q-0.34375 0.171875 -0.6875 0.28125q-0.328125 0.125 -0.59375 0.125q-0.84375 0 -1.390625 -0.25q-0.546875 -0.25 -0.859375 -0.65625q-0.296875 -0.421875 -0.421875 -0.984375q-0.109375 -0.578125 -0.109375 -1.21875q0 -0.359375 0.046875 -0.796875q0.0625 -0.4375 0.234375 -1.03125q0.1875 -0.609375 0.5 -1.4375q0.328125 -0.84375 0.828125 -2.015625q-0.0625 0 -0.796875 0.40625q-0.71875 0.40625 -1.578125 1.265625q-1.375 1.3125 -2.484375 2.609375q-1.09375 1.28125 -2.234375 2.875q-0.640625 0.90625 -1.125 1.53125q-0.484375 0.640625 -0.84375 0.84375q-0.609375 -0.359375 -0.90625 -0.984375q-0.296875 -0.625 -0.4375 -1.3125q0 -0.546875 0.15625 -1.390625q0.15625 -0.859375 0.4375 -1.890625q0.28125 -1.046875 0.6875 -2.1875q0.421875 -1.15625 0.921875 -2.296875q1.109375 -2.578125 2.03125 -4.046875q0.921875 -1.46875 1.15625 -1.578125zm5.165344 22.953125q0 -0.171875 0.125 -0.328125q0.109375 -0.140625 0.25 -0.28125q0.359375 0.328125 0.609375 0.5q0.25 0.171875 0.46875 0.28125q0.21875 0.125 0.453125 0.15625q0.234375 0.03125 0.5625 0.03125q1.515625 0 2.890625 -0.8125q1.390625 -0.796875 2.59375 -2.328125q1.21875 -1.53125 2.21875 -3.734375q1.0 -2.1875 1.765625 -4.96875q-0.359375 0.34375 -0.875 0.78125q-0.5 0.421875 -1.0625 0.796875q-0.5625 0.375 -1.109375 0.703125q-0.53125 0.328125 -0.921875 0.46875q-0.484375 -0.09375 -0.921875 -0.421875q-0.421875 -0.34375 -0.75 -0.84375q-0.3125 -0.5 -0.5 -1.125q-0.171875 -0.625 -0.171875 -1.328125q0 -1.15625 0.421875 -2.34375q0.4375 -1.203125 1.140625 -2.359375q0.703125 -1.171875 1.65625 -2.1875q0.953125 -1.03125 2.015625 -1.796875q1.078125 -0.765625 2.171875 -1.21875q1.109375 -0.453125 2.15625 -0.453125q1.03125 0 1.546875 0.421875q0.515625 0.421875 0.75 1.453125q-0.328125 -0.171875 -0.828125 -0.171875q-0.703125 0 -1.625 0.5625q-0.921875 0.546875 -1.875 1.453125q-0.953125 0.890625 -1.890625 2.046875q-0.9375 1.15625 -1.65625 2.359375q-0.71875 1.203125 -1.1875 2.34375q-0.453125 1.140625 -0.453125 2.0625q0 0.203125 0.03125 0.25q0.03125 0.03125 0.09375 0.03125q0.265625 0 0.71875 -0.28125q0.453125 -0.296875 1.015625 -0.75q0.578125 -0.453125 1.1875 -1.046875q0.625 -0.609375 1.1875 -1.234375q1.25 -1.40625 2.296875 -3.140625q1.046875 -1.75 1.65625 -3.390625q0.796875 0.046875 1.40625 0.265625q0.625 0.203125 0.859375 0.4375q-1.0 2.28125 -1.609375 3.84375q-0.59375 1.546875 -1.03125 2.75q-0.796875 2.109375 -1.484375 3.84375q-0.6875 1.75 -1.40625 3.234375q-0.71875 1.484375 -1.5625 2.75q-0.828125 1.28125 -1.890625 2.453125q-0.5 0.5625 -1.125 0.984375q-0.625 0.4375 -1.296875 0.71875q-0.65625 0.296875 -1.28125 0.4375q-0.625 0.15625 -1.15625 0.15625q-0.703125 0 -1.4375 -0.171875q-0.734375 -0.15625 -1.359375 -0.4375q-0.640625 -0.265625 -1.109375 -0.640625q-0.46875 -0.359375 -0.671875 -0.78125z" fill-rule="nonzero"/><path fill="#000000" fill-opacity="0.0" d="m285.72745 71.1355l226.99216 0l0 45.007874l-226.99216 0z" fill-rule="evenodd"/><path fill="#131313" d="m320.8221 102.5455q0 -2.046875 0.46875 -4.03125q0.484375 -1.984375 1.359375 -3.75q0.890625 -1.78125 2.109375 -3.25q1.21875 -1.484375 2.671875 -2.5625q1.453125 -1.09375 3.09375 -1.6875q1.640625 -0.609375 3.375 -0.609375q2.015625 0 3.140625 0.859375q1.140625 0.84375 1.140625 2.359375q0 0.59375 -0.171875 1.21875q-0.15625 0.609375 -0.46875 1.21875q-0.296875 0.59375 -0.71875 1.15625q-0.40625 0.546875 -0.90625 0.953125q-0.765625 -0.109375 -1.328125 -0.6875q-0.546875 -0.578125 -0.6875 -1.328125q1.015625 -0.859375 1.609375 -1.78125q0.609375 -0.921875 0.609375 -1.6875q0 -1.28125 -1.609375 -1.28125q-0.671875 0 -1.390625 0.28125q-0.71875 0.265625 -1.453125 0.765625q-0.734375 0.5 -1.421875 1.203125q-0.6875 0.703125 -1.28125 1.5625q-4.078125 5.859375 -4.078125 11.984375q0 2.171875 0.671875 3.5q0.6875 1.3125 1.796875 1.546875q1.265625 -0.296875 3.203125 -1.609375q1.9375 -1.328125 4.21875 -3.4375q0.296875 0.296875 0.359375 0.625q-0.859375 1.109375 -1.765625 2.140625q-0.90625 1.015625 -1.8125 1.875q-0.890625 0.84375 -1.765625 1.484375q-0.859375 0.65625 -1.578125 1.0q-3.640625 -0.046875 -5.515625 -2.078125q-1.875 -2.015625 -1.875 -5.953125zm16.178802 5.25q0 -1.03125 0.203125 -2.421875q0.203125 -1.390625 0.59375 -2.96875q0.40625 -1.59375 0.953125 -3.3125q0.546875 -1.734375 1.21875 -3.46875q0.578125 -1.546875 1.359375 -3.125q0.78125 -1.59375 1.6875 -3.109375q0.90625 -1.53125 1.890625 -2.90625q0.984375 -1.390625 1.984375 -2.53125q0.46875 0 1.0 0.125q0.546875 0.109375 1.0625 0.3125q0.515625 0.1875 0.9375 0.453125q0.421875 0.25 0.6875 0.515625q-2.203125 2.265625 -3.96875 4.5625q-1.75 2.296875 -2.765625 4.328125q-0.5625 1.109375 -1.015625 2.078125q-0.453125 0.96875 -0.84375 1.921875q-0.375 0.953125 -0.6875 1.90625q-0.3125 0.953125 -0.5625 2.015625q5.625 -7.1875 8.359375 -7.1875q0.75 0 1.625 0.5q0.890625 0.5 1.5625 1.34375q-0.90625 1.0 -1.875 2.40625q-0.96875 1.40625 -1.78125 2.828125q-0.796875 1.421875 -1.3125 2.640625q-0.515625 1.21875 -0.515625 1.8125q0 0.28125 0.078125 0.390625q0.09375 0.09375 0.390625 0.09375q0.4375 0 0.703125 -0.109375q0.265625 -0.125 0.328125 -0.125q0.140625 0.234375 0.171875 0.328125q0.03125 0.09375 0.03125 0.140625q0 0.125 -0.359375 0.34375q-0.34375 0.21875 -0.828125 0.4375q-0.484375 0.21875 -0.953125 0.390625q-0.46875 0.1875 -0.703125 0.1875q-0.296875 0 -0.59375 -0.171875q-0.28125 -0.15625 -0.515625 -0.421875q-0.21875 -0.265625 -0.34375 -0.578125q-0.125 -0.328125 -0.125 -0.671875q0 -0.453125 0.234375 -1.3125q0.25 -0.859375 0.6875 -2.015625q0.453125 -1.171875 1.0625 -2.546875q0.625 -1.375 1.328125 -2.8125q0 -0.125 -0.125 -0.125q-0.078125 0 -0.453125 0.234375q-0.359375 0.234375 -0.6875 0.46875q-1.0625 0.796875 -2.140625 1.953125q-1.0625 1.15625 -2.078125 2.546875q-1.0 1.375 -1.90625 2.921875q-0.890625 1.53125 -1.53125 3.078125q-0.09375 0.21875 -0.265625 0.390625q-0.171875 0.171875 -0.296875 0.171875q-0.078125 0 -0.25 -0.203125q-0.15625 -0.203125 -0.296875 -0.515625q-0.125 -0.3125 -0.25 -0.640625q-0.109375 -0.3125 -0.109375 -0.546875zm18.662628 1.53125q-1.671875 -0.1875 -2.671875 -1.46875q-1.0 -1.296875 -1.0 -3.28125q0 -1.171875 0.34375 -2.4375q0.359375 -1.265625 1.0 -2.453125q0.65625 -1.1875 1.53125 -2.234375q0.875 -1.0625 1.90625 -1.828125q1.609375 -1.203125 3.015625 -1.203125q0.9375 0.5 1.84375 2.078125q0.15625 0 0.265625 0q0.125 -0.015625 0.265625 -0.015625q1.5625 0 1.5625 2.75q0 1.84375 -0.609375 3.5q-0.59375 1.65625 -1.671875 3.015625q-1.0625 1.34375 -2.546875 2.265625q-1.484375 0.921875 -3.234375 1.3125zm1.484375 -9.25q-0.5 0.6875 -0.9375 1.484375q-0.4375 0.78125 -0.765625 1.59375q-0.3125 0.796875 -0.5 1.546875q-0.171875 0.75 -0.171875 1.328125q0 0.71875 0.234375 1.359375q0.234375 0.640625 0.53125 0.734375q1.328125 -0.296875 2.421875 -1.09375q1.09375 -0.8125 1.90625 -2.015625q0.8125 -1.203125 1.265625 -2.71875q0.453125 -1.53125 0.453125 -3.265625q0 -0.765625 -0.09375 -1.203125q-0.09375 -0.4375 -0.296875 -0.765625q-1.28125 0.390625 -2.296875 1.234375q-1.015625 0.84375 -1.75 1.78125zm7.277466 7.625q0.140625 -0.84375 0.5 -2.234375q0.375 -1.390625 0.875 -2.953125q0.5 -1.578125 1.046875 -3.15625q0.5625 -1.59375 1.09375 -2.859375q0.390625 -0.90625 0.671875 -1.40625q0.296875 -0.515625 0.65625 -0.875q0.40625 0.0625 0.84375 0.21875q0.4375 0.140625 0.84375 0.34375q0.421875 0.203125 0.734375 0.421875q0.328125 0.21875 0.5 0.421875q-0.78125 0.9375 -1.390625 2.140625q-0.59375 1.203125 -1.21875 3.078125q1.59375 -1.40625 2.8125 -2.6875q1.21875 -1.296875 2.265625 -2.875q0.171875 -0.15625 0.625 -0.15625q0.40625 0 0.78125 0.140625q0.390625 0.125 0.53125 0.359375q-0.53125 1.40625 -0.53125 2.78125q0 1.296875 0.390625 1.9375q-0.03125 0.1875 -0.40625 0.6875q-0.359375 0.484375 -0.796875 0.9375q-0.796875 -0.421875 -1.421875 -1.140625q-0.609375 -0.71875 -0.90625 -1.5625q-1.375 0.96875 -2.34375 1.890625q-0.96875 0.921875 -1.65625 2.0625q-0.6875 1.125 -1.171875 2.59375q-0.484375 1.453125 -0.921875 3.484375q-0.265625 -0.03125 -0.640625 -0.203125q-0.359375 -0.15625 -0.734375 -0.390625q-0.359375 -0.234375 -0.65625 -0.5q-0.28125 -0.265625 -0.375 -0.5zm23.022339 -11.546875q-0.109375 1.8125 -0.640625 3.125q-0.53125 1.296875 -1.515625 2.28125q-0.984375 0.984375 -2.390625 1.78125q-1.40625 0.78125 -3.28125 1.515625q0 0.1875 -0.015625 0.375q-0.015625 0.1875 -0.015625 0.390625q0 0.390625 0.0625 0.796875q0.0625 0.40625 0.203125 0.765625q0.140625 0.34375 0.40625 0.5625q0.265625 0.21875 0.671875 0.21875q0.796875 0 1.5625 -0.34375q0.765625 -0.359375 1.453125 -0.859375q0.6875 -0.515625 1.28125 -1.109375q0.609375 -0.609375 1.078125 -1.109375q0.296875 0.265625 0.5 0.5q-1.328125 1.75 -2.90625 2.921875q-1.5625 1.15625 -2.96875 1.46875q-2.015625 -0.234375 -3.15625 -1.46875q-1.125 -1.25 -1.125 -3.015625q0 -1.203125 0.328125 -2.4375q0.34375 -1.25 0.9375 -2.40625q0.609375 -1.171875 1.421875 -2.1875q0.8125 -1.03125 1.734375 -1.796875q0.921875 -0.765625 1.90625 -1.203125q0.984375 -0.4375 1.953125 -0.4375q1.34375 0.171875 2.515625 1.671875zm-2.015625 0.96875q-0.796875 0.109375 -1.65625 0.640625q-0.84375 0.53125 -1.59375 1.421875q-0.75 0.875 -1.375 2.046875q-0.609375 1.171875 -0.953125 2.515625q2.34375 -1.171875 3.890625 -2.890625q1.5625 -1.71875 1.6875 -3.734375zm6.832947 12.203125q-1.671875 -0.1875 -2.671875 -1.46875q-1.0 -1.296875 -1.0 -3.28125q0 -1.171875 0.34375 -2.4375q0.359375 -1.265625 1.0 -2.453125q0.65625 -1.1875 1.53125 -2.234375q0.875 -1.0625 1.90625 -1.828125q1.609375 -1.203125 3.015625 -1.203125q0.9375 0.5 1.84375 2.078125q0.15625 0 0.265625 0q0.125 -0.015625 0.265625 -0.015625q1.5625 0 1.5625 2.75q0 1.84375 -0.609375 3.5q-0.59375 1.65625 -1.671875 3.015625q-1.0625 1.34375 -2.546875 2.265625q-1.484375 0.921875 -3.234375 1.3125zm1.484375 -9.25q-0.5 0.6875 -0.9375 1.484375q-0.4375 0.78125 -0.765625 1.59375q-0.3125 0.796875 -0.5 1.546875q-0.171875 0.75 -0.171875 1.328125q0 0.71875 0.234375 1.359375q0.234375 0.640625 0.53125 0.734375q1.328125 -0.296875 2.421875 -1.09375q1.09375 -0.8125 1.90625 -2.015625q0.8125 -1.203125 1.265625 -2.71875q0.453125 -1.53125 0.453125 -3.265625q0 -0.765625 -0.09375 -1.203125q-0.09375 -0.4375 -0.296875 -0.765625q-1.28125 0.390625 -2.296875 1.234375q-1.015625 0.84375 -1.75 1.78125zm2.0586853 16.953125q0 -0.171875 0.125 -0.328125q0.109375 -0.140625 0.25 -0.28125q0.359375 0.328125 0.609375 0.5q0.25 0.171875 0.46875 0.28125q0.21875 0.125 0.453125 0.15625q0.234375 0.03125 0.5625 0.03125q1.515625 0 2.890625 -0.8125q1.390625 -0.796875 2.59375 -2.328125q1.21875 -1.53125 2.21875 -3.734375q1.0 -2.1875 1.765625 -4.96875q-0.359375 0.34375 -0.875 0.78125q-0.5 0.421875 -1.0625 0.796875q-0.5625 0.375 -1.109375 0.703125q-0.53125 0.328125 -0.921875 0.46875q-0.484375 -0.09375 -0.921875 -0.421875q-0.421875 -0.34375 -0.75 -0.84375q-0.3125 -0.5 -0.5 -1.125q-0.171875 -0.625 -0.171875 -1.328125q0 -1.15625 0.421875 -2.34375q0.4375 -1.203125 1.140625 -2.359375q0.703125 -1.171875 1.65625 -2.1875q0.953125 -1.03125 2.015625 -1.796875q1.078125 -0.765625 2.171875 -1.21875q1.109375 -0.453125 2.15625 -0.453125q1.03125 0 1.546875 0.421875q0.515625 0.421875 0.75 1.453125q-0.328125 -0.171875 -0.828125 -0.171875q-0.703125 0 -1.625 0.5625q-0.921875 0.546875 -1.875 1.453125q-0.953125 0.890625 -1.890625 2.046875q-0.9375 1.15625 -1.65625 2.359375q-0.71875 1.203125 -1.1875 2.34375q-0.453125 1.140625 -0.453125 2.0625q0 0.203125 0.03125 0.25q0.03125 0.03125 0.09375 0.03125q0.265625 0 0.71875 -0.28125q0.453125 -0.296875 1.015625 -0.75q0.578125 -0.453125 1.1875 -1.046875q0.625 -0.609375 1.1875 -1.234375q1.25 -1.40625 2.296875 -3.140625q1.046875 -1.75 1.65625 -3.390625q0.796875 0.046875 1.40625 0.265625q0.625 0.203125 0.859375 0.4375q-1.0 2.28125 -1.609375 3.84375q-0.59375 1.546875 -1.03125 2.75q-0.796875 2.109375 -1.484375 3.84375q-0.6875 1.75 -1.40625 3.234375q-0.71875 1.484375 -1.5625 2.75q-0.828125 1.28125 -1.890625 2.453125q-0.5 0.5625 -1.125 0.984375q-0.625 0.4375 -1.296875 0.71875q-0.65625 0.296875 -1.28125 0.4375q-0.625 0.15625 -1.15625 0.15625q-0.703125 0 -1.4375 -0.171875q-0.734375 -0.15625 -1.359375 -0.4375q-0.640625 -0.265625 -1.109375 -0.640625q-0.46875 -0.359375 -0.671875 -0.78125zm18.416412 -9.328125q0.140625 -0.84375 0.5 -2.234375q0.375 -1.390625 0.875 -2.953125q0.5 -1.578125 1.046875 -3.15625q0.5625 -1.59375 1.09375 -2.859375q0.390625 -0.90625 0.671875 -1.40625q0.296875 -0.515625 0.65625 -0.875q0.40625 0.0625 0.84375 0.21875q0.4375 0.140625 0.84375 0.34375q0.421875 0.203125 0.734375 0.421875q0.328125 0.21875 0.5 0.421875q-0.78125 0.9375 -1.390625 2.140625q-0.59375 1.203125 -1.21875 3.078125q1.59375 -1.40625 2.8125 -2.6875q1.21875 -1.296875 2.265625 -2.875q0.171875 -0.15625 0.625 -0.15625q0.40625 0 0.78125 0.140625q0.390625 0.125 0.53125 0.359375q-0.53125 1.40625 -0.53125 2.78125q0 1.296875 0.390625 1.9375q-0.03125 0.1875 -0.40625 0.6875q-0.359375 0.484375 -0.796875 0.9375q-0.796875 -0.421875 -1.421875 -1.140625q-0.609375 -0.71875 -0.90625 -1.5625q-1.375 0.96875 -2.34375 1.890625q-0.96875 0.921875 -1.65625 2.0625q-0.6875 1.125 -1.171875 2.59375q-0.484375 1.453125 -0.921875 3.484375q-0.265625 -0.03125 -0.640625 -0.203125q-0.359375 -0.15625 -0.734375 -0.390625q-0.359375 -0.234375 -0.65625 -0.5q-0.28125 -0.265625 -0.375 -0.5zm22.647339 -11.25q0.28125 0 0.671875 0.109375q0.40625 0.09375 0.71875 0.25q0.328125 0.15625 0.546875 0.34375q0.234375 0.171875 0.234375 0.3125q-0.59375 1.234375 -1.09375 2.484375q-0.5 1.25 -0.859375 2.390625q-0.34375 1.140625 -0.53125 2.140625q-0.1875 1.0 -0.1875 1.734375q0 0.8125 0.171875 1.359375q0.171875 0.546875 0.59375 0.78125q-0.359375 0.234375 -0.921875 0.375q-0.546875 0.15625 -0.984375 0.15625q-1.59375 0 -1.59375 -2.171875q0 -1.671875 1.109375 -4.578125q-0.578125 1.34375 -1.34375 2.53125q-0.765625 1.1875 -1.5625 2.109375q-0.78125 0.90625 -1.59375 1.484375q-0.796875 0.5625 -1.46875 0.671875q-1.09375 -0.046875 -1.765625 -1.03125q-0.671875 -0.984375 -0.671875 -2.515625q0 -1.640625 0.703125 -3.453125q0.703125 -1.828125 1.796875 -3.375q1.109375 -1.5625 2.390625 -2.59375q1.296875 -1.046875 2.5 -1.109375q0.296875 0.09375 0.65625 0.359375q0.359375 0.265625 0.703125 0.625q0.34375 0.34375 0.578125 0.71875q0.234375 0.359375 0.265625 0.625q-1.1875 0.171875 -2.4375 1.140625q-1.234375 0.96875 -2.25 2.328125q-1.015625 1.359375 -1.65625 2.921875q-0.640625 1.546875 -0.640625 2.90625q0 0.546875 0.40625 0.703125q0.859375 -0.1875 1.96875 -1.453125q1.109375 -1.28125 2.703125 -3.953125q0.28125 -0.515625 0.640625 -1.15625q0.375 -0.65625 0.75 -1.359375q0.390625 -0.703125 0.75 -1.421875q0.375 -0.71875 0.703125 -1.390625zm1.5185852 21.546875q-0.40625 -0.109375 -0.46875 -0.875q-0.109375 -0.375 -0.15625 -0.90625q-0.046875 -0.53125 -0.046875 -1.203125q0 -0.625 0.203125 -1.703125q0.203125 -1.0625 0.5625 -2.40625q0.375 -1.34375 0.90625 -2.90625q0.53125 -1.578125 1.171875 -3.1875q0.796875 -2.03125 1.375 -3.5q0.59375 -1.484375 0.984375 -2.5625q0.390625 -1.09375 0.640625 -1.796875q0.25 -0.703125 0.40625 -1.203125q0.109375 -0.359375 0.34375 -0.859375q0.234375 -0.5 0.546875 -1.0q0.3125 -0.515625 0.625 -0.96875q0.328125 -0.46875 0.59375 -0.703125q1.03125 0.15625 1.9375 0.546875q0.90625 0.375 1.109375 0.71875q-0.40625 0.390625 -0.9375 1.203125q-0.53125 0.796875 -1.03125 1.75q-0.5 0.953125 -0.90625 1.953125q-0.40625 0.984375 -0.609375 1.75q0.28125 -0.5 0.75 -1.078125q0.484375 -0.59375 1.4375 -1.609375q1.09375 -1.125 2.046875 -1.71875q0.953125 -0.609375 1.65625 -0.609375q1.109375 0 1.828125 0.625q0.71875 0.609375 0.71875 1.578125q0 2.109375 -0.703125 4.1875q-0.703125 2.0625 -2.015625 3.734375q-0.5 0.640625 -1.1875 1.234375q-0.671875 0.578125 -1.40625 1.03125q-0.71875 0.453125 -1.4375 0.71875q-0.703125 0.265625 -1.25 0.265625q-0.53125 0 -0.9375 -0.21875q-0.390625 -0.21875 -0.53125 -0.546875q1.140625 -0.671875 2.21875 -1.875q1.09375 -1.203125 2.015625 -2.765625q0.921875 -1.578125 1.609375 -3.390625q0.703125 -1.8125 1.046875 -3.6875q-1.109375 0.578125 -2.015625 1.265625q-0.890625 0.6875 -1.765625 1.8125q-1.0625 1.28125 -1.671875 2.078125q-0.609375 0.796875 -1.015625 1.359375q-0.390625 0.546875 -0.640625 1.03125q-0.25 0.484375 -0.546875 1.1875q-0.40625 0.9375 -0.953125 2.484375q-0.546875 1.53125 -1.125 3.4375q-0.5625 1.90625 -1.140625 4.0625q-0.5625 2.15625 -1.09375 4.296875q-0.3125 -0.0625 -0.546875 -0.46875q-0.234375 -0.265625 -0.34375 -0.390625q-0.109375 -0.109375 -0.25 -0.171875zm16.714783 -10.203125q0 -1.03125 0.203125 -2.421875q0.203125 -1.390625 0.59375 -2.96875q0.40625 -1.59375 0.953125 -3.3125q0.546875 -1.734375 1.21875 -3.46875q0.578125 -1.546875 1.359375 -3.125q0.78125 -1.59375 1.6875 -3.109375q0.90625 -1.53125 1.890625 -2.90625q0.984375 -1.390625 1.984375 -2.53125q0.46875 0 1.0 0.125q0.546875 0.109375 1.0625 0.3125q0.515625 0.1875 0.9375 0.453125q0.421875 0.25 0.6875 0.515625q-2.203125 2.265625 -3.96875 4.5625q-1.75 2.296875 -2.765625 4.328125q-0.5625 1.109375 -1.015625 2.078125q-0.453125 0.96875 -0.84375 1.921875q-0.375 0.953125 -0.6875 1.90625q-0.3125 0.953125 -0.5625 2.015625q5.625 -7.1875 8.359375 -7.1875q0.75 0 1.625 0.5q0.890625 0.5 1.5625 1.34375q-0.90625 1.0 -1.875 2.40625q-0.96875 1.40625 -1.78125 2.828125q-0.796875 1.421875 -1.3125 2.640625q-0.515625 1.21875 -0.515625 1.8125q0 0.28125 0.078125 0.390625q0.09375 0.09375 0.390625 0.09375q0.4375 0 0.703125 -0.109375q0.265625 -0.125 0.328125 -0.125q0.140625 0.234375 0.171875 0.328125q0.03125 0.09375 0.03125 0.140625q0 0.125 -0.359375 0.34375q-0.34375 0.21875 -0.828125 0.4375q-0.484375 0.21875 -0.953125 0.390625q-0.46875 0.1875 -0.703125 0.1875q-0.296875 0 -0.59375 -0.171875q-0.28125 -0.15625 -0.515625 -0.421875q-0.21875 -0.265625 -0.34375 -0.578125q-0.125 -0.328125 -0.125 -0.671875q0 -0.453125 0.234375 -1.3125q0.25 -0.859375 0.6875 -2.015625q0.453125 -1.171875 1.0625 -2.546875q0.625 -1.375 1.328125 -2.8125q0 -0.125 -0.125 -0.125q-0.078125 0 -0.453125 0.234375q-0.359375 0.234375 -0.6875 0.46875q-1.0625 0.796875 -2.140625 1.953125q-1.0625 1.15625 -2.078125 2.546875q-1.0 1.375 -1.90625 2.921875q-0.890625 1.53125 -1.53125 3.078125q-0.09375 0.21875 -0.265625 0.390625q-0.171875 0.171875 -0.296875 0.171875q-0.078125 0 -0.25 -0.203125q-0.15625 -0.203125 -0.296875 -0.515625q-0.125 -0.3125 -0.25 -0.640625q-0.109375 -0.3125 -0.109375 -0.546875zm26.225128 -4.046875q-0.671875 2.140625 -1.359375 3.90625q-0.671875 1.75 -1.4375 3.234375q-0.75 1.484375 -1.640625 2.71875q-0.875 1.25 -1.921875 2.375q-1.359375 1.40625 -2.796875 2.15625q-1.4375 0.75 -2.875 0.75q-0.734375 0 -1.453125 -0.171875q-0.71875 -0.15625 -1.34375 -0.4375q-0.625 -0.28125 -1.109375 -0.65625q-0.484375 -0.359375 -0.6875 -0.765625q0 -0.34375 0.40625 -0.609375q0.34375 0.3125 0.578125 0.484375q0.234375 0.1875 0.46875 0.296875q0.21875 0.125 0.46875 0.15625q0.234375 0.03125 0.5625 0.03125q1.671875 0 3.265625 -0.984375q1.609375 -0.984375 3.03125 -2.796875q1.421875 -1.796875 2.59375 -4.359375q1.171875 -2.5625 1.984375 -5.734375q-0.375 0.578125 -0.9375 1.4375q-0.546875 0.84375 -1.234375 1.6875q-0.671875 0.828125 -1.390625 1.515625q-0.71875 0.671875 -1.390625 0.90625q-0.46875 -0.03125 -0.984375 -0.203125q-0.5 -0.15625 -0.96875 -0.453125q-0.453125 -0.296875 -0.8125 -0.703125q-0.34375 -0.40625 -0.453125 -0.9375q0 -0.84375 0.046875 -1.359375q0.0625 -0.515625 0.21875 -1.125q0.265625 -1.125 0.765625 -2.53125q0.515625 -1.40625 1.203125 -2.765625q0.6875 -1.359375 1.515625 -2.546875q0.84375 -1.203125 1.765625 -1.875q0.234375 0 0.578125 0.046875q0.359375 0.046875 0.734375 0.171875q0.390625 0.109375 0.734375 0.28125q0.359375 0.15625 0.609375 0.40625q-0.3125 0.296875 -1.40625 1.96875q-1.078125 1.671875 -2.40625 4.8125q-0.140625 0.328125 -0.34375 0.953125q-0.203125 0.609375 -0.40625 1.28125q-0.1875 0.671875 -0.328125 1.3125q-0.140625 0.640625 -0.140625 1.03125q0 0.234375 0.0625 0.359375q0.078125 0.109375 0.140625 0.171875q0.53125 -0.09375 1.40625 -0.859375q0.875 -0.78125 2.0 -2.4375q0.703125 -1.046875 1.28125 -2.078125q0.59375 -1.046875 1.15625 -2.109375q0.578125 -1.0625 1.1875 -2.171875q0.625 -1.109375 1.328125 -2.28125q0.375 0 0.8125 0.09375q0.4375 0.078125 0.84375 0.21875q0.421875 0.125 0.71875 0.296875q0.3125 0.15625 0.46875 0.328125q-0.90625 1.9375 -1.703125 3.78125q-0.796875 1.84375 -1.40625 3.78125z" fill-rule="nonzero"/><path fill="#000000" fill-opacity="0.0" d="m126.284225 412.0771l251.68504 0l0 56.787415l-251.68504 0z" fill-rule="evenodd"/><path fill="#478370" d="m181.1976 450.14084q0.484375 -1.0625 1.15625 -2.71875q0.671875 -1.671875 1.40625 -3.609375q0.734375 -1.9375 1.5 -3.96875q0.765625 -2.03125 1.4375 -3.84375q0.671875 -1.828125 1.171875 -3.265625q0.5 -1.453125 0.71875 -2.21875q-2.015625 0.828125 -3.453125 2.53125q-1.4375 1.6875 -2.171875 4.25q-0.734375 -0.25 -1.34375 -0.90625q-0.609375 -0.65625 -0.8125 -1.65625q0.328125 -1.46875 1.203125 -2.671875q0.890625 -1.21875 2.234375 -2.078125q1.34375 -0.875 3.09375 -1.328125q1.765625 -0.46875 3.78125 -0.46875q2.5625 0 4.703125 0.75q2.140625 0.75 3.671875 2.09375q1.546875 1.34375 2.40625 3.234375q0.859375 1.890625 0.859375 4.1875q0 3.140625 -1.15625 5.984375q-1.140625 2.84375 -3.109375 5.03125q-1.96875 2.171875 -4.5625 3.46875q-2.59375 1.296875 -5.4375 1.296875q-2.625 0 -4.5 -1.046875q-1.875 -1.03125 -2.796875 -3.046875zm11.296875 -20.359375q-1.59375 0 -3.046875 0.453125q1.421875 0.5 2.34375 1.0625q0.921875 0.5625 1.28125 0.890625q-0.265625 0.34375 -0.765625 1.25q-0.484375 0.890625 -1.140625 2.171875q-0.65625 1.28125 -1.390625 2.796875q-0.734375 1.515625 -1.4375 3.125q-1.828125 4.0625 -2.640625 6.40625q-0.8125 2.328125 -0.8125 3.21875q0.4375 0.15625 1.078125 0.21875q0.640625 0.0625 1.375 0.0625q2.59375 0 4.90625 -1.1875q2.328125 -1.203125 4.0625 -3.21875q1.75 -2.015625 2.75 -4.6875q1.015625 -2.671875 1.015625 -5.625q0 -3.296875 -2.046875 -5.109375q-2.046875 -1.828125 -5.53125 -1.828125zm22.204803 9.09375q0.328125 0 0.75 0.109375q0.4375 0.109375 0.78125 0.28125q0.359375 0.171875 0.59375 0.375q0.25 0.1875 0.25 0.34375q-0.640625 1.34375 -1.1875 2.703125q-0.546875 1.359375 -0.9375 2.609375q-0.375 1.25 -0.59375 2.34375q-0.203125 1.078125 -0.203125 1.890625q0 0.890625 0.1875 1.484375q0.203125 0.59375 0.65625 0.84375q-0.390625 0.25 -1.0 0.40625q-0.609375 0.171875 -1.078125 0.171875q-1.734375 0 -1.734375 -2.375q0 -1.8125 1.21875 -4.984375q-0.640625 1.46875 -1.484375 2.765625q-0.828125 1.296875 -1.6875 2.296875q-0.859375 0.984375 -1.75 1.609375q-0.875 0.625 -1.609375 0.75q-1.1875 -0.0625 -1.921875 -1.125q-0.734375 -1.078125 -0.734375 -2.75q0 -1.78125 0.765625 -3.765625q0.765625 -1.984375 1.96875 -3.671875q1.203125 -1.703125 2.609375 -2.84375q1.40625 -1.140625 2.71875 -1.203125q0.328125 0.09375 0.71875 0.390625q0.40625 0.28125 0.765625 0.671875q0.375 0.375 0.625 0.78125q0.265625 0.390625 0.296875 0.6875q-1.28125 0.1875 -2.640625 1.25q-1.359375 1.046875 -2.46875 2.546875q-1.109375 1.484375 -1.8125 3.1875q-0.703125 1.6875 -0.703125 3.15625q0 0.609375 0.453125 0.765625q0.921875 -0.1875 2.140625 -1.578125q1.21875 -1.390625 2.953125 -4.3125q0.3125 -0.578125 0.703125 -1.28125q0.40625 -0.703125 0.8125 -1.46875q0.421875 -0.765625 0.828125 -1.546875q0.40625 -0.78125 0.75 -1.515625zm9.180649 -2.59375q0.84375 0.25 1.578125 1.140625q0.734375 0.875 1.078125 1.921875q-0.34375 0.875 -1.078125 2.09375q-0.734375 1.203125 -1.484375 2.46875q-0.734375 1.265625 -1.328125 2.40625q-0.578125 1.125 -0.671875 1.875q0.5 -0.546875 1.125 -1.265625q0.625 -0.71875 1.21875 -1.4375q0.59375 -0.734375 1.109375 -1.3125q0.515625 -0.59375 0.796875 -0.890625q0.609375 -0.640625 1.4375 -1.484375q0.828125 -0.84375 1.734375 -1.59375q0.921875 -0.765625 1.84375 -1.28125q0.9375 -0.53125 1.703125 -0.53125q0.828125 0 1.390625 0.5625q0.5625 0.5625 0.875 1.15625q0 0.078125 -0.234375 0.1875q-0.234375 0.109375 -0.6875 0.625q-0.453125 0.578125 -1.015625 1.59375q-0.546875 1.0 -1.078125 2.171875q-0.53125 1.15625 -0.890625 2.375q-0.34375 1.21875 -0.34375 2.203125q0 0.796875 0.203125 1.03125q0.21875 0.21875 0.59375 0.21875q0.359375 0 0.734375 -0.15625q0.390625 -0.15625 0.609375 -0.15625q0.125 0.0625 0.203125 0.265625q0.09375 0.203125 0.09375 0.375q-0.265625 0.21875 -0.625 0.453125q-0.34375 0.21875 -0.734375 0.40625q-0.375 0.1875 -0.75 0.3125q-0.359375 0.140625 -0.640625 0.140625q-0.9375 0 -1.53125 -0.28125q-0.59375 -0.265625 -0.9375 -0.71875q-0.328125 -0.453125 -0.453125 -1.078125q-0.125 -0.625 -0.125 -1.328125q0 -0.375 0.0625 -0.859375q0.0625 -0.484375 0.25 -1.140625q0.203125 -0.65625 0.546875 -1.5625q0.359375 -0.90625 0.90625 -2.1875q-0.0625 0 -0.875 0.453125q-0.796875 0.4375 -1.71875 1.375q-1.515625 1.4375 -2.71875 2.84375q-1.1875 1.40625 -2.4375 3.140625q-0.703125 0.984375 -1.234375 1.671875q-0.53125 0.6875 -0.90625 0.90625q-0.671875 -0.375 -1.0 -1.0625q-0.3125 -0.6875 -0.46875 -1.421875q0 -0.609375 0.171875 -1.53125q0.171875 -0.9375 0.46875 -2.0625q0.3125 -1.140625 0.75 -2.390625q0.453125 -1.25 1.0 -2.5q1.21875 -2.8125 2.21875 -4.40625q1.015625 -1.609375 1.265625 -1.734375zm12.295654 9.890625q0 -1.828125 0.75 -3.53125q0.75 -1.71875 1.984375 -3.046875q1.234375 -1.328125 2.8125 -2.140625q1.59375 -0.828125 3.28125 -0.828125q1.671875 0 2.5625 0.84375q0.890625 0.828125 0.890625 2.359375q0 0.734375 -0.203125 1.421875q-0.203125 0.6875 -0.546875 1.234375q-0.328125 0.546875 -0.78125 0.890625q-0.453125 0.328125 -0.890625 0.328125q-0.390625 0 -0.796875 -0.234375q-0.390625 -0.25 -0.640625 -0.625q2.140625 -1.953125 2.140625 -3.5625q0 -0.921875 -0.734375 -0.921875q-0.640625 0 -1.609375 0.609375q-0.953125 0.609375 -1.859375 1.59375q-1.375 1.53125 -2.09375 3.40625q-0.71875 1.875 -0.71875 3.921875q0 2.59375 1.15625 3.109375q0.484375 -0.0625 1.125 -0.28125q0.640625 -0.234375 1.375 -0.59375q0.734375 -0.375 1.515625 -0.859375q0.78125 -0.484375 1.515625 -1.015625q0.125 0.09375 0.21875 0.28125q0.109375 0.1875 0.109375 0.359375q-0.546875 0.671875 -1.25 1.3125q-0.703125 0.640625 -1.46875 1.171875q-0.765625 0.515625 -1.5 0.875q-0.71875 0.375 -1.25 0.46875q-1.0625 -0.09375 -2.0 -0.65625q-0.921875 -0.546875 -1.609375 -1.4375q-0.6875 -0.90625 -1.09375 -2.0625q-0.390625 -1.15625 -0.390625 -2.390625zm24.705643 -7.625q-0.125 1.984375 -0.703125 3.40625q-0.578125 1.421875 -1.65625 2.5q-1.0625 1.078125 -2.6093597 1.9375q-1.53125 0.859375 -3.578125 1.65625q0 0.203125 -0.015625 0.40625q-0.015625 0.203125 -0.015625 0.4375q0 0.40625 0.0625 0.859375q0.0625 0.453125 0.21875 0.84375q0.171875 0.375 0.453125 0.609375q0.296875 0.234375 0.734375 0.234375q0.859375 0 1.6875 -0.375q0.84373474 -0.390625 1.5937347 -0.9375q0.75 -0.5625 1.40625 -1.21875q0.65625 -0.65625 1.171875 -1.203125q0.3125 0.28125 0.546875 0.546875q-1.4375 1.921875 -3.15625 3.1875q-1.7187347 1.25 -3.2499847 1.609375q-2.203125 -0.265625 -3.4375 -1.625q-1.234375 -1.359375 -1.234375 -3.265625q0 -1.3125 0.359375 -2.671875q0.375 -1.375 1.03125 -2.625q0.65625 -1.265625 1.53125 -2.390625q0.890625 -1.125 1.890625 -1.953125q1.015625 -0.828125 2.078125 -1.3125q1.0781097 -0.484375 2.1406097 -0.484375q1.46875 0.203125 2.75 1.828125zm-2.203125 1.0625q-0.875 0.125 -1.8125 0.703125q-0.92185974 0.578125 -1.7343597 1.546875q-0.8125 0.953125 -1.484375 2.234375q-0.671875 1.265625 -1.0625 2.75q2.5625 -1.28125 4.2499847 -3.15625q1.703125 -1.875 1.84375 -4.078125zm17.02179 14.5625q-0.0625 0.03125 -0.140625 0.03125q-0.0625 0 -0.25 0q-0.453125 0 -1.046875 -0.15625q-0.578125 -0.140625 -1.140625 -0.34375q-0.5625 -0.203125 -0.96875 -0.46875q-0.390625 -0.25 -0.484375 -0.453125q-0.03125 -0.4375 -0.03125 -0.921875q0 -0.484375 0 -0.921875q0 -3.59375 0.515625 -7.484375q0.53125 -3.90625 1.75 -8.453125q0.125 -0.453125 0.265625 -1.140625q0.15625 -0.6875 0.3125 -1.484375q-0.765625 0.609375 -1.828125 1.9375q-1.046875 1.328125 -2.21875 3.140625q-1.171875 1.796875 -2.34375 3.96875q-1.15625 2.15625 -2.125 4.375q-0.953125 2.21875 -1.640625 4.40625q-0.6875 2.171875 -0.859375 4.03125q-1.53125 -0.453125 -2.125 -0.90625q-0.59375 -0.4375 -0.59375 -1.078125q0 -0.578125 0.34375 -1.625q0.359375 -1.0625 1.0 -2.5q0.640625 -1.453125 1.5625 -3.21875q0.9375 -1.78125 2.0625 -3.828125q1.28125 -2.34375 2.5 -4.390625q1.234375 -2.046875 2.421875 -3.703125q1.1875 -1.671875 2.3125 -2.875q1.140625 -1.21875 2.265625 -1.859375q0.453125 0 1.203125 0.21875q0.75 0.21875 1.46875 0.546875q0.71875 0.3125 1.28125 0.65625q0.5625 0.328125 0.625 0.5625q-0.453125 0.890625 -1.0625 2.6875q-0.609375 1.78125 -1.234375 4.0625q-0.625 2.265625 -1.1875 4.8125q-0.546875 2.546875 -0.875 4.875q0.734375 -1.75 1.703125 -3.65625q0.984375 -1.90625 2.078125 -3.78125q1.09375 -1.875 2.21875 -3.625q1.140625 -1.765625 2.21875 -3.21875q1.09375 -1.453125 2.03125 -2.546875q0.953125 -1.09375 1.6875 -1.59375q0.453125 0 1.203125 0.21875q0.75 0.21875 1.46875 0.546875q0.71875 0.3125 1.28125 0.65625q0.5625 0.328125 0.625 0.5625q-1.015625 1.8125 -1.796875 4.4375q-0.765625 2.625 -1.296875 5.515625q-0.515625 2.875 -0.796875 5.703125q-0.265625 2.828125 -0.265625 5.078125q0 0.734375 0 1.53125q0 0.796875 0.0625 1.671875q-0.453125 0 -1.078125 -0.125q-0.625 -0.109375 -1.21875 -0.296875q-0.578125 -0.1875 -1.0625 -0.4375q-0.484375 -0.234375 -0.671875 -0.53125q-0.03125 -0.4375 -0.03125 -0.921875q0 -0.484375 0 -0.921875q0 -3.59375 0.515625 -7.484375q0.53125 -3.90625 1.75 -8.453125q0.125 -0.453125 0.28125 -1.21875q0.171875 -0.765625 0.328125 -1.59375q-0.890625 0.4375 -2.03125 1.703125q-1.140625 1.265625 -2.3125 3.078125q-1.15625 1.796875 -2.296875 4.015625q-1.140625 2.203125 -2.046875 4.5q-0.90625 2.28125 -1.53125 4.546875q-0.625 2.25 -0.75 4.140625zm24.735413 -3.078125q-0.609375 -0.515625 -0.828125 -1.28125q-0.203125 -0.765625 -0.203125 -1.3125q0 -0.671875 0.15625 -1.15625q-0.125 0 -0.578125 0.515625q-0.4375 0.515625 -0.96875 1.21875q-0.53125 0.703125 -1.046875 1.375q-0.5 0.671875 -0.765625 0.984375q-0.40625 0.453125 -0.78125 0.703125q-0.359375 0.265625 -0.59375 0.296875q-0.5 -0.03125 -1.0625 -0.21875q-0.5625 -0.171875 -1.0625 -0.484375q-0.5 -0.328125 -0.875 -0.765625q-0.359375 -0.453125 -0.484375 -1.03125q0 -0.890625 0.046875 -1.46875q0.046875 -0.578125 0.203125 -1.25q0.296875 -1.21875 0.859375 -2.75q0.5625 -1.53125 1.296875 -3.015625q0.734375 -1.5 1.640625 -2.796875q0.921875 -1.296875 1.9375 -2.03125q0.28125 0 0.671875 0.046875q0.390625 0.046875 0.78125 0.1875q0.40625 0.125 0.765625 0.296875q0.375 0.171875 0.625 0.46875q-0.28125 0.3125 -1.453125 2.140625q-1.171875 1.828125 -2.609375 5.25q-0.15625 0.34375 -0.390625 1.015625q-0.21875 0.671875 -0.4375 1.421875q-0.21875 0.734375 -0.375 1.4375q-0.140625 0.703125 -0.140625 1.109375q0 0.265625 0.078125 0.390625q0.078125 0.125 0.15625 0.1875q0.46875 -0.1875 1.203125 -1.046875q0.734375 -0.875 2.046875 -2.65625q0.328125 -0.453125 0.75 -1.03125q0.4375 -0.578125 0.890625 -1.234375q0.453125 -0.65625 0.84375 -1.359375q0.40625 -0.703125 0.65625 -1.40625q0.125 -0.390625 0.328125 -0.90625q0.21875 -0.53125 0.515625 -1.109375q0.3125 -0.578125 0.703125 -1.171875q0.40625 -0.59375 0.953125 -1.09375q0.421875 0 0.890625 0.09375q0.484375 0.09375 0.90625 0.234375q0.4375 0.140625 0.75 0.328125q0.328125 0.171875 0.484375 0.359375q-0.5625 1.40625 -1.28125 2.78125q-0.703125 1.375 -1.3125 2.703125q-0.59375 1.328125 -1.015625 2.640625q-0.421875 1.3125 -0.421875 2.5625q0 0.671875 0.109375 1.171875q0.125 0.5 0.25 0.84375q0.125 0.328125 0.234375 0.546875q0.109375 0.21875 0.109375 0.390625q0 0.03125 -0.0625 0.09375q-0.03125 0.03125 -0.0625 0.03125q-0.21875 0 -0.578125 -0.09375q-0.34375 -0.09375 -0.78125 -0.28125q-0.421875 -0.171875 -0.859375 -0.390625q-0.4375 -0.234375 -0.8125 -0.484375zm18.13617 -12.03125q-0.03125 0.609375 -0.203125 1.265625q-0.171875 0.65625 -0.4375 1.1875q-0.25 0.515625 -0.546875 0.875q-0.28125 0.34375 -0.53125 0.34375q-0.359375 -0.03125 -0.421875 -0.46875q0 -0.09375 0.078125 -0.296875q0.078125 -0.21875 0.171875 -0.46875q0.109375 -0.265625 0.1875 -0.515625q0.078125 -0.265625 0.078125 -0.453125q0 -0.453125 -0.21875 -0.75q-0.203125 -0.296875 -0.546875 -0.296875q-1.28125 0 -1.953125 1.59375q-0.671875 1.59375 -0.671875 4.703125q0 0.3125 0.03125 0.390625q0.671875 -0.03125 1.1875 -0.046875q0.53125 -0.03125 1.046875 -0.03125q0.03125 0.078125 0.03125 0.265625q0 0.28125 -0.125 0.40625q-0.734375 0.171875 -1.171875 0.28125q-0.421875 0.109375 -0.65625 0.203125q-0.21875 0.09375 -0.265625 0.21875q-0.046875 0.109375 -0.046875 0.296875q0 0.25 0.015625 0.515625q0.015625 0.25 0.015625 0.640625q0 2.6875 -1.46875 4.3125q-1.453125 1.640625 -4.03125 1.890625q-0.453125 -0.03125 -0.9375 -0.265625q-0.484375 -0.21875 -0.921875 -0.578125q-0.421875 -0.34375 -0.75 -0.78125q-0.3125 -0.421875 -0.4375 -0.875q0 -1.21875 0.5 -2.3125q0.515625 -1.109375 1.390625 -1.953125q0.890625 -0.84375 2.09375 -1.375q1.203125 -0.53125 2.609375 -0.625q0 -0.796875 -0.171875 -1.5625q-0.15625 -0.78125 -0.328125 -1.5q-0.171875 -0.71875 -0.34375 -1.40625q-0.15625 -0.6875 -0.15625 -1.359375q0 -0.859375 0.34375 -1.703125q0.359375 -0.859375 0.9375 -1.578125q0.578125 -0.71875 1.34375 -1.21875q0.765625 -0.515625 1.609375 -0.71875q0.34375 0.09375 0.9375 0.5625q0.59375 0.46875 1.171875 1.046875q0.578125 0.578125 1.015625 1.171875q0.453125 0.578125 0.546875 0.96875zm-10.5625 14.59375q0.78125 -0.328125 1.46875 -0.9375q0.6875 -0.609375 1.1875 -1.375q0.515625 -0.765625 0.8125 -1.625q0.3125 -0.859375 0.3125 -1.703125q-0.640625 0.09375 -1.40625 0.59375q-0.765625 0.5 -1.4375 1.1875q-0.671875 0.6875 -1.125 1.421875q-0.453125 0.734375 -0.453125 1.28125q0 0.703125 0.640625 1.15625zm22.056396 -15.109375q-0.125 1.984375 -0.703125 3.40625q-0.578125 1.421875 -1.65625 2.5q-1.0625 1.078125 -2.609375 1.9375q-1.53125 0.859375 -3.578125 1.65625q0 0.203125 -0.015625 0.40625q-0.015625 0.203125 -0.015625 0.4375q0 0.40625 0.0625 0.859375q0.0625 0.453125 0.21875 0.84375q0.171875 0.375 0.453125 0.609375q0.296875 0.234375 0.734375 0.234375q0.859375 0 1.6875 -0.375q0.84375 -0.390625 1.59375 -0.9375q0.75 -0.5625 1.40625 -1.21875q0.65625 -0.65625 1.171875 -1.203125q0.3125 0.28125 0.546875 0.546875q-1.4375 1.921875 -3.15625 3.1875q-1.71875 1.25 -3.25 1.609375q-2.203125 -0.265625 -3.4375 -1.625q-1.234375 -1.359375 -1.234375 -3.265625q0 -1.3125 0.359375 -2.671875q0.375 -1.375 1.03125 -2.625q0.65625 -1.265625 1.53125 -2.390625q0.890625 -1.125 1.890625 -1.953125q1.015625 -0.828125 2.078125 -1.3125q1.078125 -0.484375 2.140625 -0.484375q1.46875 0.203125 2.75 1.828125zm-2.203125 1.0625q-0.875 0.125 -1.8125 0.703125q-0.921875 0.578125 -1.734375 1.546875q-0.8125 0.953125 -1.484375 2.234375q-0.671875 1.265625 -1.0625 2.75q2.5625 -1.28125 4.25 -3.15625q1.703125 -1.875 1.84375 -4.078125z" fill-rule="nonzero"/><path fill="#000000" fill-opacity="0.0" d="m407.82983 141.73917l0 0c34.273468 0 67.14322 13.613434 91.378235 37.845505c24.235046 24.232056 37.850098 57.097794 37.850098 91.36711l-129.22833 0z" fill-rule="evenodd"/><path fill="#000000" fill-opacity="0.0" d="m407.82983 141.73917l0 0c34.273468 0 67.14322 13.613434 91.378235 37.845505c24.235046 24.232056 37.850098 57.097794 37.850098 91.36711" fill-rule="evenodd"/><path stroke="#131313" stroke-width="24.0" stroke-linejoin="round" stroke-linecap="butt" d="m407.82983 141.73917l0 0c34.273468 0 67.14322 13.613434 91.378235 37.845505c24.235046 24.232056 37.850098 57.097794 37.850098 91.36711" fill-rule="evenodd"/><path fill="#000000" fill-opacity="0.0" d="m347.3 443.04822c75.56802 0 131.10065 -39.80313 151.13608 -79.60629c20.03543 -39.80313 4.5736694 -79.60629 9.147369 -79.60629" fill-rule="evenodd"/><path stroke="#478370" stroke-width="4.0" stroke-linejoin="round" stroke-linecap="butt" d="m347.3 443.04822c75.568054 0 131.10065 -39.80313 151.13608 -79.60629c10.017731 -19.90158 11.161133 -39.80313 10.371826 -54.72934l-0.051940918 -0.90560913" fill-rule="evenodd"/><path fill="#478370" stroke="#478370" stroke-width="4.0" stroke-linecap="butt" d="m515.355 307.4842l-7.48584 -17.807922l-5.712219 18.45346z" fill-rule="evenodd"/></g></svg>